<svg xmlns="http://www.w3.org/2000/svg" version="1.1" xlink="http://www.w3.org/1999/xlink" xmlns:svgjs="http://svgjs.com/svgjs" width="100%" height="100%" preserveAspectRatio="xMidYMid meet" viewBox="0.00003745791764231399 -7.112026310096553e-7 200.09750366210938 147.00001525878906" overflow="visible"><defs id="SvgjsDefs13346"></defs><g id="SvgjsG13347" transform="scale(0.36972720851285423)" opacity="1"><g id="SvgjsG13348" class="ve-d7rRiw" transform="translate(184.35278710454557, 41.08141082128149) scale(2.4995709885706052) rotate(18, 63.1795, 63.096349393402335)" light-content="false" non-strokable="false" fill="#aaaaaa"><path d="M126.359 63.484l-.217-.219-1.498-1.512-.852-.859c.702-.811 1.415-1.641 2.153-2.495l.2-.231-.234-.2-1.62-1.379c-1.619-1.38-3.368-2.871-4.821-4.112-3.073-2.659-5.687-4.828-8.635-7.285L99.51 35.837a327.824 327.824 0 0 1-3.962-3.342 734.97 734.97 0 0 0-5.55-6.918c-3.354-4.124-7.21-8.777-10.857-13.209l-1.322-1.577-6.611-7.874L69.251.576 69 .275l-.296.249-2.702 2.259-.359-.355L63.48.275 63.204 0l-.273.273-2.268 2.282-.15-.126c-.78-.657-1.561-1.311-2.335-1.962l-.299-.252-.249.297c-5.281 6.287-10.492 12.523-15.995 18.982l-2.384 2.832c-2.59 3.072-5.174 6.139-7.765 9.215a1364.7 1364.7 0 0 0-9.386 7.892C16.471 44.22 10.895 48.84 5.11 53.58L.424 57.374l-.148.12.123.152c.533.659 1.077 1.328 1.642 2.024.239.294.488.597.733.896L.137 63.133 0 63.266l.137.142 1.819 1.865.595.604-2.21 2.548-.126.144.147.129c.641.555 1.292 1.12 1.97 1.705l7.436 6.369c.129.109.239.205.367.317 2.455 2.111 4.862 4.187 7.56 6.441l4.05 3.42c3.48 2.97 6.718 5.664 9.874 8.293l3.65 4.3c.691.814 1.593 1.882 2.232 2.664 2.246 2.752 4.623 5.645 6.386 7.884l2.471 3.083c2.928 3.657 5.818 7.033 8.666 10.427.71.847 1.636 1.896 1.733 1.967.175.129.396.311.486.336-.042.097.449-.24 1.412-.971.504-.38 1.018-.77 1.564-1.188l.347.343c.785.779 1.803 1.737 1.906 1.8.191.115.43.276.517.287-.039.107.418-.273 1.316-1.09.396-.363.801-.732 1.224-1.122.049.042.099.082.147.122.848.711 1.942 1.581 2.051 1.636.195.095.444.235.537.244-.023.104.401-.315 1.222-1.201 2.096-2.261 4.379-4.757 9.043-10.257 1.758-1.953 3.911-4.538 6.051-7.07 1.773-2.087 3.563-4.195 5.351-6.297.493-.594.998-1.199 1.496-1.801l1.808-2.174 1.715-2.052c2.336-1.967 4.756-3.999 6.17-5.273.165-.148.726-.617 1.121-.948 4.795-4.003 9.442-7.9 14.468-11.992 3.016-2.453 5.89-4.791 9.139-7.436l.236-.192-.196-.237-1.354-1.641c-.318-.387-.641-.781-.968-1.175l2.575-2.521.218-.214zM100.443 37.17c3.696 3.117 7.273 6.136 10.872 9.173l14.112 11.882c-.652.777-1.31 1.553-1.967 2.334-1.136-1.146-2.28-2.303-3.275-3.308-2.84-2.908-5.261-5.287-7.992-7.984-3.783-3.702-6.7-6.558-10.498-10.272a267.836 267.836 0 0 1-4.915-4.947l-.027-.035 3.69 3.157zm-34.836 86.182c-.68-.604-1.46-1.289-2.299-2.018a378.494 378.494 0 0 0 6.044-4.918c2.073-1.616 4.644-3.784 7.194-5.904 2.11-1.746 4.242-3.506 6.368-5.265l1.788-1.509 2.159-1.824.645-.543-3.866 3.842-4.802 4.781c-1.377 1.379-3.002 3.01-4.537 4.549a980.863 980.863 0 0 0-8.694 8.809zm55.044-59.459c-1.646 1.946-3.132 3.789-4.957 5.873-.214.254-.785.941-1.209 1.452l-2.642 3.14-9.548 11.159-3.828 4.429-2.919 3.435c-.918.912-1.841 1.827-2.762 2.744-4.336 3.584-8.7 7.188-13.059 10.792l-5.22 4.323-4.935 4.112a1045.753 1045.753 0 0 0-6.686 5.618 756.786 756.786 0 0 0-4.399-3.788 470.448 470.448 0 0 1-5.856-5.074l-1.38-1.16c-3.177-2.655-6.312-5.269-9.569-8.095-.604-.524-1.554-1.308-2.343-1.969a5491.3 5491.3 0 0 0-3.568-2.998c-.817-.692-1.642-1.387-2.46-2.078-.115-.114-.229-.229-.345-.342l-2.385-2.386-.423-.507c-1.579-1.896-3.164-3.802-4.751-5.71-3.572-4.303-7.207-8.607-10.694-12.914-1.496-1.753-2.943-3.62-4.516-5.44-.33-.385-1.102-1.332-1.657-2.009l-2.818-3.407c4.496-5.322 8.994-10.649 13.488-15.971 3.107-3.681 6.137-7.266 9.2-10.893l2.225-2.64.179-.18c.852-.852 1.702-1.706 2.554-2.56l.324-.268c4.543-3.783 9.059-7.58 13.719-11.384l3.642-3.031c1.755-1.463 3.643-3.065 5.222-4.354 2.445-2 4.817-3.971 7.172-5.937l5.854 4.929c5.897 4.997 11.806 10.007 17.713 15.011a125.49 125.49 0 0 0 2.236 1.863c1.152.932 2.362 1.954 3.652 3.049.877.855 1.788 1.767 2.749 2.73 1.107 1.297 2.268 2.708 3.531 4.224l5.268 6.421c3.095 3.715 6.089 7.312 9.101 10.93l7.246 8.688c-.05.059-.098.114-.146.173zm.419.157l1.821 2.184-2.488 2.491c-1.806 1.803-3.439 3.515-5.435 5.437l-1.325 1.348c-.961.962-1.973 1.979-2.896 2.904l-10.451 10.318c-.032.032-.062.063-.096.094 1.896-2.271 3.83-4.587 4.962-6.041.138-.176.606-.734.938-1.129 4.021-4.782 7.915-9.431 12.149-14.337l2.821-3.269zm-67.087 52.554a446.962 446.962 0 0 1-5.408-5.547l-1.278-1.274c-2.941-2.911-5.847-5.779-8.854-8.868a8.244 8.244 0 0 1-.131-.132l3.71 3.069c.824.682 1.898 1.575 2.664 2.232 2.693 2.317 5.539 4.75 7.666 6.645.842.741 1.984 1.741 2.972 2.605 2.4 2.107 4.76 4.084 7.096 6.03-.718.61-1.41 1.198-2.071 1.763a619.436 619.436 0 0 0-6.366-6.523zM5.277 63.618c.989 1.208 1.987 2.423 2.971 3.621l.306.379c2.048 2.508 4.054 4.971 6.317 7.662l3.389 4.075a918.959 918.959 0 0 0 7.118 8.523c-3.187-3.179-6.387-6.357-9.494-9.546-1.649-1.61-3.262-3.337-4.993-5.007-.366-.352-1.223-1.227-1.837-1.849L3.42 65.812l.532-.62c.311-.368.859-1.021 1.304-1.55a.103.103 0 0 0 .021-.024zm.068-.979l-1.704-2.06.366-.358 1.431-1.437c5.098-5.098 10.198-10.195 15.292-15.291a8764.87 8764.87 0 0 0 4.312-4.312c-2.281 2.717-4.48 5.351-6.495 7.79A1205.35 1205.35 0 0 1 5.345 62.639zm33.224-36.996a855.668 855.668 0 0 1 4.864-4.822 2690.04 2690.04 0 0 1 3.352-3.35c1.612-1.62 3.346-3.386 4.799-4.817 3.128-3.072 6.117-6.081 9.114-9.089l2.18 1.836a2414.671 2414.671 0 0 1-13.24 11.016c-.927.771-1.895 1.579-2.844 2.372l-8.225 6.854zM64.04 5.382l1.907-1.594c2.584 2.576 5.164 5.149 7.745 7.726 4.683 4.697 9.372 9.403 14.062 14.11a651.36 651.36 0 0 0-4.777-4.167c-4.023-3.476-8.633-7.383-12.998-11.108L68.4 9.028c-1.459-1.219-2.905-2.431-4.36-3.646zm56.467 57.117c-2.562-3.154-4.756-5.748-7.229-8.683l-9.514-11.19c-2.255-2.673-3.492-4.183-4.792-5.811 1.158 1.173 2.264 2.292 3.538 3.584 3.423 3.419 6.733 6.728 10.064 10.053l10.541 10.514c-.649.772-1.303 1.548-1.959 2.323-.221-.268-.439-.536-.649-.79zM68.906 1.321l.807.97c2.899 3.479 5.786 6.94 8.68 10.408l13.129 15.842c-1.59-1.66-3.28-3.41-5.093-5.266-3.718-3.802-7.982-8.081-12.021-12.162l-1.461-1.449-6.419-6.359c.791-.661 1.583-1.323 2.378-1.984zm-5.701-.269c.296.295.594.592.892.893.444.441.885.88 1.328 1.323L63.47 4.904c-.742-.621-1.488-1.247-2.238-1.873.656-.66 1.313-1.318 1.973-1.979zM39.929 22.623l3.057-3.621c1.472-1.747 3.05-3.654 4.379-5.2 3.652-4.253 7.094-8.379 10.603-12.539l.964.814c.401.338.801.673 1.201 1.012-4.844 4.876-9.682 9.746-14.734 14.759-.853.851-1.742 1.744-2.615 2.621l-6.971 6.984a738.325 738.325 0 0 1 4.116-4.83zM1.163 57.583l3.382-2.758L6.1 53.527l16.627-13.828c1.695-1.411 3.371-2.802 5.04-4.19a1386.369 1386.369 0 0 0-7.684 7.775A1238.676 1238.676 0 0 1 4.457 58.929l-1.208 1.175c-.699-.843-1.395-1.686-2.086-2.521zm-.27 5.691l2.273-2.229L4.9 63.158c-.205.238-.404.474-.609.712l-1.307 1.507-2.091-2.103zM17.31 82.247c-1.78-1.464-3.531-3.052-5.397-4.568-.394-.321-1.321-1.12-1.986-1.688-2.895-2.459-5.903-5.012-8.821-7.488.635-.736 1.261-1.465 1.881-2.186l5.846 5.926c.119.12.221.228.34.347 2.268 2.312 4.491 4.581 6.99 7.054l3.749 3.748a823.246 823.246 0 0 0 7.233 7.211c-3.302-2.783-6.613-5.561-9.835-8.356zm39.971 43.606c-.017-.06-.079-.171-.205-.358-.839-1.259-4.462-5.731-7.924-9.947a453.483 453.483 0 0 1-4.878-6.021l-1.157-1.383c-2.661-3.17-5.293-6.289-8.006-9.641-.095-.118-.204-.25-.317-.388l3.901 3.823c.763.749 1.759 1.729 2.466 2.448 2.489 2.535 5.12 5.199 7.081 7.267l2.742 2.846c3.036 3.151 6.017 6.062 8.96 8.974-1.625 1.39-2.484 2.163-2.663 2.38zm5.74.272c-.021-.057-.091-.163-.236-.341-.351-.436-1.124-1.275-2.151-2.355.668-.515 1.388-1.076 2.199-1.717.808.671 1.611 1.343 2.414 2.014-1.358 1.399-2.078 2.178-2.226 2.399zm24.065-22.787c-1.466 1.729-2.873 3.387-4.384 5.171l-4.139 4.911a1013.911 1013.911 0 0 0-7.906 9.488c-1.463 1.779-2.22 2.745-2.364 2.999-.027-.055-.106-.153-.263-.315-.361-.381-1.122-1.081-2.125-1.977 1.932-1.786 4.312-4.051 8.272-7.994 1.917-1.8 4.278-4.193 6.624-6.537 1.943-1.932 3.904-3.882 5.86-5.824l1.643-1.668 1.934-1.964-3.152 3.71zm38.281-34.136l-5.692 4.743c-1.964 1.629-3.747 3.184-5.909 4.915l-1.443 1.22-3.15 2.629-11.352 9.319-.326.265c2.215-2.241 4.551-4.598 5.888-6.043.15-.164.664-.681 1.029-1.046 4.408-4.428 8.68-8.732 13.312-13.267l5.464-5.35 2.179 2.615zm-3.931-5.574c.662-.77 1.331-1.544 2.012-2.332l2.191 2.185-2.369 2.373a765.614 765.614 0 0 1-1.834-2.226z"></path></g><g id="SvgjsG13349" class="_iSFXyTWA" transform="translate(0.03836073858703516, 126.14186631467383) scale(0.5695694977178992)" light-content="false" non-strokable="false" fill="#3256ad"><path d="M216.6 20.3c1.3.8 3.2 1.6 5.3 2.4-.2-.9-.9-1.7-2.1-2.5-1.3-.7-3.1-1.4-5.6-2.1.2.7 1.1 1.4 2.4 2.2zM68.5 266c-3.6-2.6-7-5.4-10.3-8.3-1.4-1.2-2.7-2.3-4.1-3.5-.3-.4-.6-.9-.8-1.3.3-.8-.4-1.7-1.5-2.7-1.1-1-2.7-2-4.3-3-2.7-2.8-3.7-3.3-5.1-2.5 1.2 1.4 2.4 2.8 3.5 4 1 1.5 1.9 2.8 3 4.2-2.3-2.6-4.3-5.4-6.5-8.2-1.5-1.7-2.9-2-3.5-1.4l2.1 3.3c.8 1.1 1.6 2.1 2.3 3.2.2 1.6-1 1.2-1.3 1.4.6.7 1.1 1.3 1.7 2 .6.7 1.2 1.3 1.9 2 1.3 1.3 2.6 2.7 4 4 1.4 1.3 2.8 2.6 4.3 4 1.5 1.3 3 2.6 4.6 3.9.6.5 1.2 1 1.9 1.4.7.4 1.3.9 2 1.3 1.3-.4 2.6-.9 3.9-1.4-.3-.2-.4-.3-.7-.6 1.2-.7 2-1.2 2.9-1.8zm-17.4-9.4c-.9-1.1-1.8-2.3-2.7-3.4 1.2 1.3 2.3 2.9 3.7 4.2.4.4.8.8 1.2 1.1-.8-.4-1.6-1-2.2-1.9zM68.4 270c.3.9 1.2 1.8 2.6 2.9.7.5 1.6 1 2.6 1.6 1 .6 2.3 1.1 3.7 1.7.5-.3-.9-1.5-1.3-2.3-1.8-1.2-3.7-2.7-7.6-3.9zm-11.8-54.2c.6 1.3 1.3 2.6 1.8 3.8.3.5.6.9.8 1.2.8 1.1 1.7 2.3 2.6 3.5 6 2.9-2.6-5.1-2.9-7.8-.5.4-1.9-1.6-2.3-.7zM206.9 14c-2-1.5-3.9-2.8-5.7-3.5-1.8-.7-3.4-1-4.5-.6.5 1.6 4.3 2.7 10.2 4.1z"></path><path d="M308.3 158.7c-.1-.9-.3-1.9-.4-3.2-.1-1.3-.1-2.8-.1-4.7-.1-.1-.2-.1-.3-.2-.5-.2-1-.5-1.5-.7-.2-1.8-.4-3.3-.6-4.9-1.1.3-2.2.8-3.3 1.2-.7-.1-1.5-.1-2.3 0-.6-.3-.9-.4-1.5 2.9-.6.8-1.2 1.8-1.8 2.7-.7 0-1.5-.1-2.3-.1-1.2-1.1-2.6-2.2-3.9-3.4-.4-1.4-.8-1.7-1-2.8-.7-.3-1.5-.6-2.2-.8-.9-.2-1.9-.2-2.9-.2-.5 0-1.5-1.2-1.6.2-.8.7-1.7 1.3-2.5 2.2-.2-.5-.5-.8-.7-1 .1 12.2-1.5 24.5-5.1 36.2.2 1.3-2.1 4.1-.6 4-1 6.6-3.7 12.2-6.3 18.1 1.7.7.9 2.4-.5 4.2-1.3 1.8-3 3.8-2.8 5.5-1.6.5-2.4 2.2-3.4 4-1 1.8-2 3.9-3.9 4.8-4.2 6.7-10.4 13.5-16.2 18.3-1.6 1.7-3.2 3.3-5 4.7-.9.7-1.8 1.4-2.8 2.1-.9.7-1.9 1.4-2.9 2-2 1.3-4 2.6-6.2 3.7l-3.3 1.8c-1.1.6-2.3 1.2-3.5 1.8.1.8-1.6 1.3-1.8 2.3-1.8.9-3.7 1.7-5.6 2.6-1.9.8-3.9 1.6-5.8 2.4-1.6.6-3.3 1.2-5.1 1.9-1.8.6-3.8 1.1-5.7 1.7-3.9 1-7.9 1.9-11.4 2.4-.6.8-3.3.3-3.2 2.1-1-.3-2.1-.5-3.4-.4-.6 0-1.3.2-2 .4s-1.4.4-2.2.8c-1.6-.5-5.3.6-5.2-.7-1 .1-3.1-.2-3.1.4-.6.3-1.3.4-2.2.4-.8 0-1.7-.1-2.5-.1-1.4.3-2.6.5-4.1.8 1-1.3-3.3-1.3-3.6-.9-.6.3-1.6.2-2.7.2s-2.2 0-3.1.7c-.3 0-.5-.1-.8-.1-1-.7-2-1.2-2.9-1.4-.9-.2-1.7-.2-2.3.4-.8-.2-1.4-.6-2.3-.8-.9-.2-2.1-.1-4.1.5-.8-.1-1.7-.2-2.4-.2 1.3-.8-1.2-1-.7-1.8-1.3.1-2.9-.2-4.5-.6-1.6-.4-3.3-.9-5-1.5-1.7-.6-3.3-1.2-4.9-1.7-1.6-.6-3-1-4.4-1.1-1.9-.8-3.6-1.6-5.5-2.5-1.3-.5-2.8-1.4-4.3-2.1-1.5-.7-3-1.3-4.5-1.5-.4-.2-.8-.5-1.4-.8-3.8-2.3-8.2-6.2-14.2-8.9-1.8-1.5-3.5-3.1-5.1-4.7-.8-.8-1.6-1.6-2.4-2.3-.8-.7-1.6-1.5-2.4-2.2-1.1-1.2-1.5-2.1-1.7-3 0-.1 0-.2-.1-.3-8.4-6.5-15-14.4-20.8-23.2-.9-.4-1.8-.6-2.6-.9-.9-.7-1.9-1.6-2.7-2.4-.2-.4-.4-.9-.7-1.4-3.7-7.7-7.2-17.2-9.6-25.4-.2-.1-.5-.4-.8-.6-.3-.8-.5-1.7-.7-2.8-.2-1.1-.5-2.6-.7-4.6.3-.1.6-.1 1-.2-3.9-15.5-5-31-2.9-46.9l.5.5c.4-4.2 1.1-8.3 1.9-12.3v-.1c.1-.2.1-.5.2-.7 5.5-25 19.1-47.9 37.9-65.4-1 1-1.5 2-2.5 3 16.5-17 37-28 60.5-33.5 6-1 12-2.5 18-2 8.5 0 17.5 0 26 .5l-.5.5c11.5 1 22.5 5 33.5 9-1.5-.5-3.5-1-5-1.5 15.5 6 30 14 42 26 2.7 3.1 5.4 5.9 8.1 8.8h.4c1.4-.5 1.6-2.2 1.8-3.3-1-1.5-2.2-2.8-3.4-4.3-.7-1.1-1.3-2.1-2.2-3.2-2-1.9-4.2-3.9-6.3-5.6-.7-.9-1.5-1.7-2.3-2.6-.8-.8-1.7-1.6-2.5-2.4-1.7-1.7-3.6-3.1-5.5-4.6l-1.4-1.1-1.5-1c-1-.7-1.9-1.4-2.9-2.1-1.9-1.4-3.9-2.6-5.6-4-.8-.9-2.7-1.8-4.5-2.8-.5-.2-.9-.5-1.4-.7-.4-.2-.9-.4-1.3-.6-.8-.4-1.4-.8-1.8-1.2-.8-.4-1.7-.8-2.5-1.2-.8-.4-1.7-.7-2.5-1-.9-.4-2-.8-2.9-1.2.6-1.7-3.6-2.7-5.1-2.5l-1.9-.7-1.9-.6-3.8-1.1c-1.3-.4-2.6-.6-3.9-1-1.3-.3-2.6-.7-3.9-.9-1.3-.3-2.6-.7-3.9-1-.2-.7-1.4-1.3-2.9-1.5-1.5-.2-3.2-.2-4.2.1-.8-.1-1.7-.2-2.5-.3-1.9-.6-4.1-1.2-6.2-1.8 1.2-1-1.5-1.2-.6-1.9.8-.6 1.4-1.2 2-1.8 1.2-.1 2.5-.1 4.1-.2 1.6-.2 3.6-.3 6.2-.6l3 .6c1 .2 1.9.5 2.9.7 1 .2 1.9.5 2.9.7.5.1 1 .2 1.4.4.5.1 1 .3 1.4.4.1.7 1.2 1.4 2.9 1.8 1.7.4 4 .8 6.7.8-1.7-1-3.4-2-5.2-2.8.1-.4.3-.8.4-1.3 0-.1.1-.2.1-.3-.8-.3-1.7-.7-2.5-1-1.4-.3-2.8-.7-4.2-1-2-.2-1.4 1.1-3 1.4-.9-.4-1.4-1.1-2.1-1.7-.7-.6-1.7-1.2-3.4-1.2-1.6-.2-3.4-.3-5.2-.4-1.6-.1-3.4-.1-5.1-.2 0 .1 0 .3-.1.3-1.3.3-2.4.6-3.7 1-1.2-.1-2.4-.1-3.7-.1-1.2 0-2.5-.1-3.7 0-2.5.1-4.9 0-7-.2-8.2.2-16.4 1.2-24.4 2.9-.9-.5-2.3-.5-3.8-.1s-2.9 1.1-3.9 1.7c-10.2 2.7-20.2 6.6-29.6 11.6-1.5.2-2.6-.4-4.3 1-.9 1.1-2.9 2-3.2 3.4-1.2.6-2.4 1.1-3.6 1.7-1.1.6-2.3 1.2-3.4 1.8-1.6 1-3.3 2-4.8 3.1-1.6 1.1-3.2 2.1-4.7 3.3-1.4.9-2.9 1.9-4.4 2.9-1 1.1-1.8 2.2-2.9 3.4-.9.9-1.9 1.7-2.8 2.6-.9.9-1.8 1.9-2.8 2.9-.8.6-1.7 1.3-2.4 2.1-.8.8-1.4 1.6-1.7 2.3-1.3 1.2-2.7 2.4-3.9 3.6.7-1.8-1.4-1.1-.8-3.1-1.2.4-2.4 2.6-3.5 3.8-.5 1.3-.9 2.5-1.3 3.8-.1.1-.3.4-.4.6-.4-1.1-1.5-.1-2.3.5-.6.8-1.1 1.5-1.6 2.4-.5 1-1.1 2.2-1.7 4-1.3 1.4-2.1 1.9-2.8 2.6-1 2.1-3.5 4.7-3.1 6.5-.8 1.7-1.5 3.2-2.3 5-1.1 1.7-2 3.6-3 5.4-.6.5-1.1 1.5-1.6 2.5-.4 1.1-.8 2.2-1.3 3.2-.1 1.6-.2 3.2-.2 4.9-.6 1.9-1.2 3.7-1.8 5.6-.6 1.9-1 3.7-1.5 5.5-.4 1.3-.7 2.3-1 3.6-1 .4-2.2 3-3.3 4.4-.5 1.8-.7 3.7-.7 6.5-.1.6-.2 1.1-.3 1.8-2 1.6-1.2 6.1-1.5 8 .4 1 .9 1.9 1.3 2.9-1 1.2-.8 3.5-1 5.3-2.8 4.3-2.3 13-1.7 20.6.6 1.3 1.2 2.5 1.9 3.8.2 1.8.3 3.6.5 5.3.2 1.8.5 3.5.7 5.3-.9.4-1.1 2.6-.4 4.6.9.8 1.3 3 1.9 5.3.7 2.3 1.6 4.8 3.4 5.8.2.7.4 1.6.7 2.5.4 1.1.8 2.3 1.1 3.4.7 1.4-.1-2.7.6-1.3.7 1 1.3 2.5 2.1 3.8.8 1.3 1.5 2.3 2.2 2.3.2-1.3 0-2-.6-3.1-.5-1.1-1.4-2.7-2.8-5.7 1.1-2.5-2.4-9.6-2.2-13.9-.8-1.6-1.5-3.3-2.2-5.1-.4-2.4-.6-3.6-.8-5.1-.7-2.2-1.4-4.2-2-6.2 1 .7 1.1-3.3 2-3.5-.1-1.2-.1-2.4-.2-3.6-.1-1.2 0-2.4-.1-3.5 0-2.3-.1-4.7 0-7 .2-1.1.3-2.3.5-3.4.1-1.5.3-2.9.4-4.3.2-1.4.4-2.9.6-4.3.2-.3.5-.6.7-.8.2.6.5 1.2.8 2 1.6-4.4 1.8 1.4 2.7 2.1.5.4 1 .7 1.5 1.1-.2 2.4-.6 5.5.2 7.5-.2.5-.3 1-.4 1.7-.7.5-1 2.5-.9 4.7 0 1.1.1 2.3.3 3.4.2 1.1.5 2 .9 2.7h.9c1.1.5 2.2 1.1 3.3 1.7.3.8.6 1.6 1 2.4.4.8.7 1.6 1.1 2.4.2 1.8.3 2.8.5 4 .3 0 .7 0 1.6-.1.3 1.5.5 3 .7 4.3.2 1.3.6 2.5 1.3 3.4.4 1.8.8 3.5 1.2 5.3l1.5 5.4c.5 2.1 1.3 4.3 1.9 6.4.7 2.1 1.5 4.2 2.1 6.3.6 1.9 1.3 3.7 1.9 5.5.6 1.9 1.5 3.6 2.2 5.5.6 1.6 1.4 3.2 2.1 4.7.7 1.6 1.4 3.1 2.2 4.7.2 1.3.6 2.9 1.3 4.5.8 1.6 1.8 3.2 3.1 4.6.8.3 1.6.5 2.5.9.4.5.9 1.2 1.3 1.9-1.8-.4-.3 1.6-.3 2.4 1.1 1.3 2.4 2.5 3.6 3.7.1 1.2 0 2.2.1 3.3 1.7 2 3.2 3.8 4.9 5.7 1 1.7 3 2 3.7 2.6.9.8 1.8 1.6 2.8 2.4l3 2.4c3.1 2.7 3.1 4 4.7 6.3-1 0-1.9 0-3-.1-.3.2-.6.4-.8.5.9.8 1.7 1.5 2.5 2.2 4.2 3 3.9.1 7.5 1.8 1.5.9 2.8 1.8 4.3 2.8 1.1.8 2.2.5 5 2.9 1.8-.3 2.7.4 3.7 1.4 1 1 2.1 2.4 4.2 3.2-.5.4-1 .9-1.5 1.4-1.2-.7-2.5-1.4-3.7-2-1.3-.7-2.5-1.3-3.7-2.1-.1.1-.2.2-.3.2.2.9.5 1.8.7 2.7 2.1 1.1 4 2.1 6.1 3.2 2.2 1.1 4.6 2.4 6.8 3.5 1.8.8 3.9 1.6 5.8 2.3 2.3.9 4 1.6 5.5 2.2 1.4 1 2.9 1.8 4.2 2.6 1.2 0 2.5.2 3.8.4 1.3.2 2.7.4 4.2.8 3 .7 6.5 1.3 10.7 2 1.9.5 4 1 5.8 1.4l-1.8 3.3c-1.8-.3-3.6-.6-5.3-1-1.6-.4-3.1-.9-4.6-1.3-.8-.2-1.5-.4-2.3-.6-.8-.2-1.5-.5-2.3-.7-.2.3-.5.7-.8 1.1-1-.1-1.9-.3-2.7-.4-1.9-1.2-3.8-2.5-5.6-3.8-.7.1-1.5.2-2.2.2-4.7-1.2-6.3-1.4-6.8.1-1.5-.4-3-.8-4.5-1.3-3.1-1.6-6.7-3.7-12.8-5.3.3.6.9 1.2 1.6 1.7.8.5 1.7 1 2.8 1.5s2.3 1 3.6 1.5c1.3.5 2.7.9 4.1 1.3 1 .5 2 1 3 1.4l3.1 1.3c2.1.9 4.1 1.8 6.2 2.5.6.1 1.3.1 1.8.3.3-.3.6-.7.8-1.1 1.2.4 2.3.8 3.6 1.2 1.3 1.2 3.3 1.9 5.6 2.4 2.3.4 5 .6 7.5 1l4.8.9c1.6.3 3.2.6 4.8.8 1.9.1 3.9.2 5.6.4l7.5.3c1.1.2 2.4.3 3.5.5.9 0 1.7 0 2.6.1.9.2 1.7.4 2.6.7-.2.5-.3.9-.5 1.3 0 .1-.1.2-.1.3 2.6 1.4 3.8 1.3 6.2.2 1 0 1.9-.1 2.8-.1.9-.1 1.8-.1 2.8-.2 1.1-.5 2.2-1 3.1-1.5.7.1 1.3.1 1.8.2 1.4.5 1.2 1.1 2.3 1.3 3.1-.5 6.4-1 9.3-1.7 2.5-.5 5.4-1 5.4-.1 1.2-.3 2.5-.5 4.1-.9.8-.2 1.7-.4 2.8-.8 1-.4 2.1-.8 3.3-1.4 1.5-.9 3.1-1.8 4.6-2.7.7-.2 3.7 0 5.4-2.5-.5-.4-1.1-.8-1.8-1.1.9-.7 1.8-1.5 2.7-2.3 2.9-1.1 5.7-2.2 8.5-3.5.7.3 1.6.3 2.6.2.8-.4 1.7-.8 2.6-1.2.9-.4 1.8-.8 2.6-1.3 1.7-.9 3.2-1.9 3.8-3.4 1.1-.5 2-1.1 3.1-2 1.1-.9 2.5-2.1 4.6-4 .8-.5 1.5-.9 2.3-1.4 1.6-.9 3.2.2 5.7-2.4 1.6-1.1 2.9-2.1 3.4-4 .6-1.1 1.1-1.9 1.7-3 1.9-1.6 3.7-3.4 5.5-5.2 1.8-1.7 3.5-3.6 5.2-5.4.5-.3.9-.6 1.5-1 1.7-.7 3-1.5 4.8-3.6.7-1.8 4.4-4.4 4-7.4 1-1.2 1.8-2.5 2.7-3.8.9-1 1.7-2 2.6-3.1.8-1 1.7-2.1 2.5-3.3.9-.4 1.8-1.4 2.7-2.8.8-1.4 1.7-3.1 2.5-4.9 1.2-1.7 2-3.2 2.6-4.7.6-1.5.9-2.9 1-4.5.5-1.1 1.6-2.5 1-4 1.2-2.4 2.9-5.3 3.1-10.3.6-1.6 1.3-3.3 2-5.1 2.2-1.7 2.4.4 4.4-.7.4-2.2.8-4.5 1.2-6.7.7-3.2.7-5.2 1.6-7.6.1-1.3 0-2.9 0-4.2.4-1.7.8-3.5 1.2-4.9.3-1.5.4-2.7.2-3.3.4-2.4.3-4 0-5.8zM191 17.8c.5.2 1 .3 1.5.4.5.1 1 .3 1.6.4-1.6-.5-3.4.1-4.7-1.1 0-.1-.2-.2-.3-.4.6.3 1.2.5 1.9.7zM18.2 135.2c.1-.9.2-1.7.2-2.6 0 .8-.1 1.7-.2 2.6zM24.4 71c.5-.9 1.1-1.7 1.7-2.4-.3.8-.7 1.6-1.7 2.4zm165.4 215.5c-.1 0-.2 0-.4.1l.9-.3c-.2 0-.3.1-.5.2zm85.4-55.6c.5-.9 1-1.8 1.5-2.9.3-.7.7-1.4 1.1-2.2-.5 1.3-1.1 3-2.6 5.1zm9.1-14.5c-.6 1-1.2 2.2-1.7 3.2.6-1.5 1.3-2.9 2-4.3 0 .4-.2.7-.3 1.1zm2.9-4.3l-.2.2c.1-.1.2-.1.2-.2.1-.2.2-.4.4-.6-.1.2-.2.4-.4.6z"></path></g><g id="SvgjsG13350" class="text" transform="translate(344.1482311688386, 246.92305180230835) scale(1 1)" light-content="false" fill="#10134d"><path d="M-64.06 -75.12L-64.64 -74.92C-65.1 -74.79 -65.57 -74.73 -66.06 -74.73C-66.54 -74.73 -66.98 -74.66 -67.37 -74.53C-67.76 -74.4 -68.35 -74.37 -69.13 -74.44C-71.02 -74.44 -72.61 -74.27 -73.91 -73.95C-74.23 -73.89 -74.53 -73.82 -74.79 -73.75L-75.57 -73.56C-76.09 -73.43 -76.61 -73.31 -77.13 -73.22C-77.65 -73.12 -78.17 -73.04 -78.69 -72.97C-78.82 -72.97 -78.95 -72.96 -79.08 -72.92C-79.21 -72.89 -79.57 -72.91 -80.15 -72.97L-81.23 -72.68C-81.68 -72.55 -82.07 -72.47 -82.4 -72.44C-82.72 -72.4 -83.37 -72.29 -84.35 -72.09C-85.06 -71.96 -85.78 -71.9 -86.49 -71.9C-87.21 -71.9 -87.89 -71.83 -88.54 -71.7C-88.87 -71.64 -89.19 -71.56 -89.52 -71.46C-89.84 -71.36 -90.17 -71.28 -90.49 -71.22C-91.4 -71.09 -92.09 -70.96 -92.54 -70.83L-93.52 -70.63L-94.49 -70.44C-94.88 -70.31 -95.27 -70.24 -95.66 -70.24C-96.05 -70.24 -96.02 -69.95 -95.57 -69.36C-95.44 -69.17 -95.24 -69.05 -94.98 -69.02C-94.72 -68.99 -94.2 -68.78 -93.42 -68.39C-93.03 -68.26 -92.74 -68.03 -92.54 -67.7C-92.35 -67.38 -91.86 -66.83 -91.08 -66.05C-90.69 -65.66 -90.49 -65.3 -90.49 -64.97C-90.36 -64.45 -90.36 -63.95 -90.49 -63.46C-90.62 -62.97 -90.82 -62.27 -91.08 -61.36C-91.08 -61.23 -91.27 -60.78 -91.66 -60C-91.73 -59.87 -91.76 -59.75 -91.76 -59.66C-91.76 -59.56 -91.92 -59.25 -92.25 -58.73C-92.38 -58.4 -92.45 -58.11 -92.45 -57.85C-92.45 -57.59 -92.48 -57.3 -92.54 -56.97C-92.67 -56.65 -92.79 -56.36 -92.88 -56.1C-92.98 -55.84 -93.06 -55.54 -93.13 -55.22C-93.19 -55.09 -93.21 -54.99 -93.18 -54.92C-93.14 -54.86 -93.26 -54.47 -93.52 -53.75C-93.58 -53.69 -93.71 -53.33 -93.91 -52.68C-93.97 -52.49 -94.05 -52.23 -94.15 -51.9C-94.25 -51.58 -94.36 -51.02 -94.49 -50.24C-94.62 -49.66 -94.8 -49.09 -95.03 -48.53C-95.26 -47.98 -95.44 -47.41 -95.57 -46.83C-95.63 -46.57 -95.66 -46.34 -95.66 -46.14C-95.66 -45.95 -95.76 -45.62 -95.96 -45.17C-96.22 -44 -96.41 -42.76 -96.54 -41.46C-96.61 -41.2 -96.66 -40.94 -96.69 -40.68C-96.72 -40.42 -96.77 -40.13 -96.84 -39.8C-96.9 -39.48 -96.97 -39.19 -97.03 -38.93C-97.1 -38.67 -97.19 -38.37 -97.32 -38.05C-97.45 -37.53 -97.57 -36.97 -97.66 -36.39C-97.76 -35.8 -97.94 -34.99 -98.2 -33.95C-98.33 -33.49 -98.44 -33.06 -98.54 -32.63C-98.64 -32.21 -98.75 -31.77 -98.88 -31.32C-99.01 -30.86 -99.16 -30.42 -99.32 -30L-100.05 -28.1C-100.12 -27.77 -100.18 -27.46 -100.25 -27.17C-100.31 -26.88 -100.38 -26.6 -100.44 -26.34C-100.57 -26.02 -100.65 -25.72 -100.69 -25.46C-100.72 -25.2 -100.83 -24.97 -101.03 -24.78C-101.29 -25.1 -101.47 -25.45 -101.57 -25.8C-101.66 -26.16 -101.78 -26.54 -101.91 -26.93C-102.1 -27.51 -102.3 -28.11 -102.49 -28.73C-102.69 -29.35 -102.85 -29.92 -102.98 -30.44C-103.11 -30.89 -103.24 -31.33 -103.37 -31.75C-103.5 -32.18 -103.63 -32.55 -103.76 -32.88C-103.96 -33.4 -104.14 -33.87 -104.3 -34.29C-104.46 -34.71 -104.61 -35.19 -104.74 -35.71C-104.8 -36.16 -105 -36.75 -105.32 -37.46C-105.45 -37.79 -105.55 -38.1 -105.62 -38.39C-105.68 -38.68 -105.78 -38.93 -105.91 -39.12C-106.04 -39.45 -106.15 -39.74 -106.25 -40C-106.35 -40.26 -106.46 -40.52 -106.59 -40.78C-106.79 -41.3 -106.95 -41.87 -107.08 -42.49C-107.21 -43.1 -107.4 -43.67 -107.66 -44.19C-107.66 -44.26 -107.68 -44.32 -107.71 -44.39C-107.74 -44.45 -107.92 -44.84 -108.25 -45.56C-108.51 -46.21 -108.67 -46.7 -108.74 -47.02C-109.26 -47.74 -109.71 -48.55 -110.1 -49.46C-110.49 -50.37 -110.98 -51.45 -111.57 -52.68C-111.63 -52.81 -111.65 -52.91 -111.62 -52.97C-111.58 -53.04 -111.73 -53.3 -112.05 -53.75C-112.18 -54.01 -112.26 -54.27 -112.3 -54.53C-112.33 -54.79 -112.41 -55.05 -112.54 -55.31C-112.67 -55.84 -112.82 -56.37 -112.98 -56.92C-113.14 -57.48 -113.26 -58.01 -113.32 -58.53C-113.45 -59.9 -113.47 -61.43 -113.37 -63.12C-113.27 -64.81 -113.06 -66.21 -112.74 -67.31C-112.61 -67.64 -112.53 -67.83 -112.49 -67.9C-112.46 -67.96 -112.31 -68.32 -112.05 -68.97L-110.2 -70.53C-109.88 -70.66 -109.45 -70.86 -108.93 -71.12C-108.8 -71.18 -108.72 -71.25 -108.69 -71.31C-108.66 -71.38 -108.35 -71.51 -107.76 -71.7C-107.57 -71.9 -107.31 -72.19 -106.98 -72.58C-107.11 -72.78 -107.29 -72.86 -107.52 -72.83C-107.75 -72.79 -107.96 -72.78 -108.15 -72.78C-108.87 -72.91 -109.55 -72.94 -110.2 -72.88C-110.85 -72.81 -111.5 -72.84 -112.15 -72.97C-112.35 -72.97 -112.54 -72.99 -112.74 -73.02C-112.93 -73.05 -113.13 -73.07 -113.32 -73.07C-113.65 -73.14 -114.01 -73.2 -114.4 -73.27C-114.79 -73.33 -115.14 -73.36 -115.47 -73.36C-115.99 -73.36 -116.46 -73.35 -116.88 -73.31C-117.31 -73.28 -117.74 -73.27 -118.2 -73.27C-118.98 -73.2 -119.76 -73.1 -120.54 -72.97C-121.32 -72.84 -122.07 -72.75 -122.79 -72.68C-123.24 -72.61 -123.71 -72.58 -124.2 -72.58L-125.61 -72.58C-125.87 -72.52 -126.12 -72.45 -126.35 -72.39C-126.57 -72.32 -126.85 -72.29 -127.18 -72.29C-127.7 -72.29 -128.28 -72.34 -128.93 -72.44C-129.58 -72.53 -130.36 -72.58 -131.27 -72.58C-131.6 -72.52 -131.89 -72.48 -132.15 -72.48C-132.41 -72.48 -132.7 -72.45 -133.03 -72.39C-133.55 -72.39 -134.07 -72.37 -134.59 -72.34C-135.11 -72.31 -135.63 -72.22 -136.15 -72.09C-136.54 -72.22 -137 -72.27 -137.52 -72.24C-138.04 -72.21 -138.56 -72.19 -139.08 -72.19L-140.25 -72.09C-140.51 -72.09 -140.9 -72.03 -141.42 -71.9C-141.68 -71.9 -141.92 -71.88 -142.15 -71.85C-142.38 -71.82 -142.65 -71.8 -142.98 -71.8C-143.56 -71.8 -144.18 -71.82 -144.83 -71.85C-145.48 -71.88 -145.87 -71.64 -146 -71.12C-145.87 -70.79 -145.68 -70.65 -145.42 -70.68C-145.16 -70.71 -144.9 -70.66 -144.64 -70.53C-144.51 -70.47 -144.41 -70.4 -144.35 -70.34C-144.28 -70.27 -143.86 -70.18 -143.08 -70.05C-142.82 -69.98 -142.57 -69.9 -142.35 -69.8C-142.12 -69.7 -141.87 -69.62 -141.61 -69.56C-141.29 -69.43 -140.93 -69.35 -140.54 -69.31C-140.15 -69.28 -139.89 -69.2 -139.76 -69.07C-139.24 -68.81 -138.72 -68.39 -138.2 -67.8C-137.68 -67.22 -137.26 -66.7 -136.93 -66.24C-136.48 -65.79 -136.15 -65.43 -135.96 -65.17C-135.83 -65.04 -135.73 -64.83 -135.66 -64.53C-135.6 -64.24 -135.5 -63.96 -135.37 -63.7C-135.24 -63.38 -135.13 -63.1 -135.03 -62.88C-134.93 -62.65 -134.85 -62.4 -134.78 -62.14C-134.65 -61.43 -134.62 -60.58 -134.69 -59.61C-134.75 -58.63 -134.75 -57.85 -134.69 -57.27C-134.62 -56.75 -134.56 -56.24 -134.49 -55.75C-134.43 -55.27 -134.36 -54.76 -134.3 -54.24C-134.23 -53.46 -134.22 -52.66 -134.25 -51.85C-134.28 -51.04 -134.3 -50.21 -134.3 -49.36C-134.36 -48.78 -134.41 -48.14 -134.44 -47.46C-134.48 -46.78 -134.52 -46.21 -134.59 -45.75C-134.65 -45.3 -134.7 -44.91 -134.74 -44.58C-134.77 -44.26 -134.75 -43.84 -134.69 -43.32C-134.69 -43.12 -134.65 -42.91 -134.59 -42.68C-134.52 -42.45 -134.52 -42.05 -134.59 -41.46C-134.59 -40.75 -134.56 -39.82 -134.49 -38.68C-134.43 -37.54 -134.36 -36.71 -134.3 -36.19C-134.3 -35.67 -134.33 -35.3 -134.39 -35.07C-134.46 -34.84 -134.49 -34.6 -134.49 -34.34C-134.43 -34.01 -134.36 -33.72 -134.3 -33.46L-134.1 -32.68C-133.97 -31.84 -133.86 -30.78 -133.76 -29.51C-133.66 -28.24 -133.65 -27.02 -133.71 -25.85C-133.71 -25.4 -133.68 -24.88 -133.61 -24.29C-133.55 -23.71 -133.52 -23.19 -133.52 -22.73C-133.52 -22.6 -133.55 -22.47 -133.61 -22.34C-133.68 -22.21 -133.68 -21.85 -133.61 -21.27C-133.61 -21.07 -133.63 -20.83 -133.66 -20.54C-133.7 -20.24 -133.71 -19.97 -133.71 -19.71C-133.71 -19.45 -133.7 -19.19 -133.66 -18.93C-133.63 -18.67 -133.65 -18.15 -133.71 -17.37C-133.78 -17.24 -133.83 -17.15 -133.86 -17.12C-133.89 -17.09 -133.97 -16.81 -134.1 -16.29C-134.17 -15.9 -134.2 -15.5 -134.2 -15.07L-134.2 -13.76C-134.2 -13.56 -134.17 -13.35 -134.1 -13.12C-134.04 -12.89 -134.04 -12.68 -134.1 -12.49C-134.04 -11.84 -134.04 -11.22 -134.1 -10.63C-134.17 -10.24 -134.22 -9.97 -134.25 -9.8C-134.28 -9.64 -134.36 -9.46 -134.49 -9.27C-134.75 -8.81 -135.01 -8.16 -135.27 -7.32C-135.34 -7.19 -135.4 -7.12 -135.47 -7.12C-135.53 -7.12 -135.63 -6.86 -135.76 -6.34C-135.89 -5.89 -136.1 -5.53 -136.39 -5.27C-136.69 -5.01 -137 -4.72 -137.32 -4.39C-138.04 -4.06 -138.8 -3.74 -139.61 -3.41C-140.43 -3.09 -141.22 -2.76 -142 -2.44C-142.2 -2.37 -142.48 -2.29 -142.83 -2.2C-143.19 -2.1 -143.04 -1.69 -142.39 -0.98C-142.2 -0.91 -141.99 -0.91 -141.76 -0.98C-141.53 -1.04 -141.22 -1.04 -140.83 -0.98C-140.44 -0.98 -140.04 -1.02 -139.61 -1.12C-139.19 -1.22 -138.82 -1.27 -138.49 -1.27C-137.97 -1.33 -137.48 -1.37 -137.03 -1.37C-136.57 -1.37 -136.12 -1.43 -135.66 -1.56L-134.3 -1.76C-133.84 -1.82 -133.39 -1.85 -132.93 -1.85C-132.15 -1.92 -131.4 -1.93 -130.69 -1.9C-129.97 -1.87 -129.26 -1.85 -128.54 -1.85C-127.83 -1.92 -127.16 -1.98 -126.54 -2.05C-125.92 -2.11 -125.29 -2.18 -124.64 -2.24C-123.53 -2.31 -122.46 -2.33 -121.42 -2.29C-120.38 -2.26 -119.4 -2.24 -118.49 -2.24L-116.35 -2.24C-115.7 -2.24 -114.79 -2.28 -113.61 -2.34C-113.61 -2.54 -113.55 -2.65 -113.42 -2.68C-113.29 -2.72 -113.35 -2.99 -113.61 -3.51L-114.49 -4.39C-114.95 -4.65 -115.4 -4.89 -115.86 -5.12C-116.31 -5.35 -116.77 -5.53 -117.22 -5.66C-117.94 -5.92 -118.36 -6.15 -118.49 -6.34C-118.69 -6.47 -118.92 -6.6 -119.18 -6.73L-119.76 -7.02C-119.89 -7.15 -120.05 -7.24 -120.25 -7.27C-120.44 -7.3 -120.87 -7.48 -121.52 -7.8L-121.86 -8.15C-121.96 -8.24 -122.33 -8.55 -122.98 -9.07C-123.5 -9.4 -124.05 -9.92 -124.64 -10.63C-124.64 -10.96 -124.69 -11.22 -124.79 -11.41C-124.88 -11.61 -125.06 -12.13 -125.32 -12.98C-125.39 -13.11 -125.45 -13.22 -125.52 -13.32C-125.58 -13.41 -125.68 -13.76 -125.81 -14.34C-125.94 -14.73 -126.04 -15.12 -126.1 -15.51C-126.17 -15.9 -126.33 -16.39 -126.59 -16.97C-126.85 -18.08 -127.09 -19.2 -127.32 -20.34C-127.55 -21.48 -127.73 -22.7 -127.86 -24C-128.12 -24.32 -128.25 -24.67 -128.25 -25.02C-128.25 -25.38 -128.38 -26.15 -128.64 -27.32C-128.7 -27.71 -128.74 -28.08 -128.74 -28.44L-128.74 -29.46C-128.8 -29.85 -128.82 -30.21 -128.79 -30.54C-128.75 -30.86 -128.74 -31.22 -128.74 -31.61C-128.8 -32 -128.83 -32.34 -128.83 -32.63C-128.83 -32.93 -128.9 -33.17 -129.03 -33.36C-128.83 -33.62 -128.74 -33.9 -128.74 -34.19C-128.74 -34.49 -128.7 -34.76 -128.64 -35.02C-128.57 -35.61 -128.49 -36.16 -128.39 -36.68C-128.3 -37.2 -128.15 -37.92 -127.96 -38.83C-127.83 -39.35 -127.71 -39.87 -127.61 -40.39C-127.52 -40.91 -127.4 -41.33 -127.27 -41.66C-127.21 -41.92 -127.03 -42.42 -126.74 -43.17C-126.44 -43.92 -126.33 -44.39 -126.39 -44.58C-126.39 -45.43 -126.33 -46.32 -126.2 -47.27C-126.07 -48.21 -126 -49.01 -126 -49.66C-125.94 -49.79 -125.94 -49.88 -126 -49.95C-126.07 -50.01 -126.07 -50.34 -126 -50.92L-126 -53.85C-125.87 -54.24 -125.87 -54.73 -126 -55.31C-125.94 -55.44 -125.87 -55.54 -125.81 -55.61C-125.74 -55.67 -125.71 -56 -125.71 -56.58C-125.65 -57.3 -125.61 -58 -125.61 -58.68C-125.61 -59.36 -125.58 -60.13 -125.52 -60.97C-125.45 -61.23 -125.39 -61.51 -125.32 -61.8C-125.26 -62.1 -125.19 -62.5 -125.13 -63.02C-124.8 -63.87 -124.28 -64.26 -123.57 -64.19C-123.24 -64.13 -122.96 -63.87 -122.74 -63.41C-122.51 -62.96 -122.33 -62.47 -122.2 -61.95C-121.94 -61.3 -121.78 -60.81 -121.71 -60.49L-121.57 -60.05C-121.53 -59.95 -121.45 -59.54 -121.32 -58.83L-121.13 -58.44L-120.44 -57.07L-119.96 -55.9C-119.83 -55.77 -119.75 -55.61 -119.71 -55.41C-119.68 -55.22 -119.6 -55.05 -119.47 -54.92C-119.21 -54.34 -118.95 -53.72 -118.69 -53.07C-118.43 -52.42 -118.17 -51.64 -117.91 -50.73C-117.91 -50.67 -117.86 -50.6 -117.76 -50.53C-117.66 -50.47 -117.52 -50.21 -117.32 -49.75C-117.13 -49.56 -116.93 -49.23 -116.74 -48.78C-116.61 -48.39 -116.49 -47.97 -116.4 -47.51C-116.3 -47.06 -116.18 -46.63 -116.05 -46.24C-115.86 -45.85 -115.68 -45.46 -115.52 -45.07L-114.79 -43.32C-114.59 -42.86 -114.38 -42.47 -114.15 -42.14C-113.92 -41.82 -113.75 -41.49 -113.61 -41.17C-113.42 -40.84 -113.27 -40.53 -113.18 -40.24C-113.08 -39.95 -112.96 -39.64 -112.83 -39.32C-112.7 -38.99 -112.56 -38.68 -112.4 -38.39C-112.23 -38.1 -111.99 -37.69 -111.66 -37.17C-111.6 -36.97 -111.52 -36.78 -111.42 -36.58C-111.32 -36.39 -111.21 -36.23 -111.08 -36.1L-110.4 -34.24C-110.27 -33.98 -110.18 -33.72 -110.15 -33.46C-110.12 -33.2 -110.07 -33.01 -110.01 -32.88C-109.94 -32.68 -109.91 -32.5 -109.91 -32.34C-109.91 -32.18 -109.75 -31.71 -109.42 -30.93C-109.09 -29.88 -108.7 -28.91 -108.25 -28C-107.79 -27.09 -107.34 -26.11 -106.88 -25.07C-106.49 -24.16 -106.1 -23.19 -105.71 -22.15C-105.32 -21.1 -104.9 -20.16 -104.44 -19.32C-104.38 -19.12 -104.3 -18.93 -104.2 -18.73C-104.1 -18.54 -103.92 -18.15 -103.66 -17.56C-103.27 -16.84 -102.93 -16.18 -102.64 -15.56C-102.35 -14.94 -102.04 -14.28 -101.71 -13.56L-101.13 -12.39C-100.93 -12 -100.77 -11.64 -100.64 -11.32C-100.51 -11.06 -100.43 -10.8 -100.4 -10.54C-100.36 -10.28 -100.31 -10.02 -100.25 -9.76C-99.99 -9.24 -99.83 -8.81 -99.76 -8.49C-99.7 -8.23 -99.66 -7.97 -99.66 -7.71C-99.66 -7.45 -99.63 -7.15 -99.57 -6.83C-99.5 -6.57 -99.27 -6.15 -98.88 -5.56C-98.56 -5.5 -98.33 -5.69 -98.2 -6.15C-98.07 -6.6 -97.97 -6.96 -97.91 -7.22C-97.84 -7.48 -97.79 -7.87 -97.76 -8.39C-97.73 -8.91 -97.68 -9.3 -97.62 -9.56C-97.62 -9.69 -97.6 -9.95 -97.57 -10.34C-97.53 -10.73 -97.49 -11.15 -97.42 -11.61C-97.36 -12.06 -97.27 -12.52 -97.18 -12.98C-97.08 -13.43 -97 -13.79 -96.93 -14.05C-96.61 -15.48 -96.35 -17.02 -96.15 -18.68C-95.96 -20.34 -95.76 -21.82 -95.57 -23.12C-95.44 -23.77 -95.24 -24.44 -94.98 -25.12C-94.72 -25.8 -94.53 -26.5 -94.4 -27.22C-94.33 -27.41 -94.3 -27.61 -94.3 -27.8C-94.3 -28 -94.17 -28.49 -93.91 -29.27C-93.84 -29.4 -93.83 -29.49 -93.86 -29.56C-93.89 -29.62 -93.81 -29.88 -93.62 -30.34C-93.55 -30.47 -93.52 -30.63 -93.52 -30.83C-93.52 -31.02 -93.49 -31.25 -93.42 -31.51C-93.1 -32.55 -92.71 -33.88 -92.25 -35.51C-92.12 -35.84 -92.02 -36.16 -91.96 -36.49C-91.89 -36.81 -91.79 -37.14 -91.66 -37.46C-91.53 -37.79 -91.37 -38.11 -91.18 -38.44C-90.98 -38.76 -90.85 -39.09 -90.79 -39.41C-90.79 -39.74 -90.85 -40.08 -90.98 -40.44C-91.11 -40.8 -91.14 -41.14 -91.08 -41.46C-90.95 -41.79 -90.79 -42.11 -90.59 -42.44C-90.4 -42.76 -90.23 -42.99 -90.1 -43.12C-89.84 -43.64 -89.52 -44.19 -89.13 -44.78C-88.87 -45.3 -88.64 -45.66 -88.45 -45.85C-88.32 -47.35 -87.96 -48.71 -87.37 -49.95C-86.79 -51.18 -86.23 -52.42 -85.71 -53.66C-85.45 -54.24 -85.21 -54.84 -84.98 -55.46C-84.75 -56.08 -84.51 -56.68 -84.25 -57.27C-84.12 -57.59 -83.97 -57.88 -83.81 -58.14C-83.65 -58.4 -83.5 -58.66 -83.37 -58.92C-83.24 -59.25 -83.11 -59.61 -82.98 -60C-82.85 -60.39 -82.63 -60.62 -82.3 -60.68C-82.23 -59.44 -82.1 -58.19 -81.91 -56.92C-81.71 -55.66 -81.58 -54.37 -81.52 -53.07C-81.45 -52.55 -81.44 -52.05 -81.47 -51.56C-81.5 -51.07 -81.52 -50.57 -81.52 -50.05C-81.45 -49.66 -81.4 -49.27 -81.37 -48.88C-81.34 -48.49 -81.29 -48.06 -81.23 -47.61C-81.23 -47.48 -81.26 -47.38 -81.32 -47.32C-81.39 -47.25 -81.36 -46.96 -81.23 -46.44C-81.23 -45.53 -81.18 -44.73 -81.08 -44.05C-80.98 -43.36 -80.9 -42.66 -80.84 -41.95C-80.77 -41.49 -80.77 -40.89 -80.84 -40.14C-80.9 -39.4 -80.84 -38.93 -80.64 -38.73C-80.58 -38.01 -80.56 -37.43 -80.59 -36.97C-80.62 -36.52 -80.61 -36.03 -80.54 -35.51C-80.48 -35.06 -80.45 -34.65 -80.45 -34.29L-80.45 -33.27C-80.38 -32.55 -80.32 -31.82 -80.25 -31.07C-80.19 -30.32 -80.12 -29.59 -80.06 -28.88C-79.99 -28.1 -79.93 -27.3 -79.86 -26.49C-79.8 -25.67 -79.7 -24.91 -79.57 -24.19C-79.44 -23.67 -79.34 -23.1 -79.27 -22.49C-79.21 -21.87 -79.18 -21.37 -79.18 -20.97C-79.05 -20.39 -79.01 -19.84 -79.08 -19.32C-79.14 -18.8 -79.21 -18.21 -79.27 -17.56C-79.27 -17.24 -79.29 -16.89 -79.32 -16.54C-79.36 -16.18 -79.37 -15.84 -79.37 -15.51C-79.31 -14.99 -79.23 -14.49 -79.13 -14C-79.03 -13.51 -79.05 -13.01 -79.18 -12.49C-79.18 -12.36 -79.23 -12.19 -79.32 -12C-79.42 -11.8 -79.5 -11.61 -79.57 -11.41C-79.7 -11.22 -79.78 -11.02 -79.81 -10.83C-79.84 -10.63 -79.93 -10.44 -80.06 -10.24C-80.25 -9.98 -80.43 -9.8 -80.59 -9.71C-80.75 -9.61 -80.96 -9.43 -81.23 -9.17C-81.42 -9.04 -81.6 -8.89 -81.76 -8.73C-81.93 -8.57 -82.23 -8.36 -82.69 -8.1C-82.95 -7.97 -83.19 -7.82 -83.42 -7.66C-83.65 -7.5 -84.15 -7.25 -84.93 -6.93C-85.06 -6.86 -85.16 -6.8 -85.23 -6.73C-85.29 -6.67 -85.62 -6.54 -86.2 -6.34C-86.46 -6.21 -86.72 -6.11 -86.98 -6.05C-87.24 -5.98 -87.5 -5.89 -87.76 -5.76C-88.22 -5.56 -88.64 -5.35 -89.03 -5.12C-89.42 -4.89 -90.01 -4.49 -90.79 -3.9C-90.98 -3.77 -91.16 -3.71 -91.32 -3.71C-91.48 -3.71 -91.7 -3.58 -91.96 -3.32C-92.22 -3.19 -92.45 -3.09 -92.64 -3.02C-92.84 -2.96 -92.87 -2.76 -92.74 -2.44C-92.48 -2.18 -92.2 -2.08 -91.91 -2.15C-91.62 -2.21 -91.34 -2.24 -91.08 -2.24C-89.97 -2.24 -88.98 -2.31 -88.1 -2.44C-87.23 -2.57 -86.33 -2.67 -85.42 -2.73C-84.77 -2.73 -84.14 -2.7 -83.52 -2.63C-82.9 -2.57 -82.23 -2.54 -81.52 -2.54C-80.87 -2.6 -80.25 -2.65 -79.67 -2.68C-79.08 -2.72 -78.43 -2.76 -77.71 -2.83C-76.41 -2.96 -75.11 -3.01 -73.81 -2.98C-72.51 -2.94 -71.21 -2.96 -69.91 -3.02C-69.58 -3.09 -69.15 -3.17 -68.59 -3.27C-68.04 -3.37 -67.44 -3.38 -66.79 -3.32C-66.46 -3.32 -66.14 -3.33 -65.81 -3.37C-65.49 -3.4 -65.16 -3.41 -64.84 -3.41C-64.51 -3.41 -64.2 -3.38 -63.91 -3.32C-63.62 -3.25 -63.31 -3.25 -62.98 -3.32C-62.66 -3.32 -62.35 -3.37 -62.06 -3.46C-61.76 -3.56 -61.49 -3.67 -61.23 -3.8C-60.97 -3.93 -60.69 -4.03 -60.4 -4.1C-60.1 -4.16 -59.99 -4.46 -60.06 -4.98C-60.77 -5.43 -61.58 -5.79 -62.5 -6.05C-62.95 -6.24 -63.37 -6.41 -63.76 -6.54C-64.15 -6.67 -64.87 -6.93 -65.91 -7.32C-66.1 -7.38 -66.3 -7.41 -66.49 -7.41C-66.69 -7.41 -66.85 -7.45 -66.98 -7.51C-67.24 -7.64 -67.52 -7.84 -67.81 -8.1C-68.1 -8.36 -68.41 -8.62 -68.74 -8.88C-68.87 -9.01 -69.03 -9.11 -69.23 -9.17C-69.42 -9.24 -69.58 -9.33 -69.71 -9.46C-69.78 -9.46 -69.84 -9.5 -69.91 -9.56C-69.97 -9.63 -70.27 -9.79 -70.79 -10.05C-70.92 -10.18 -71.05 -10.36 -71.18 -10.58C-71.31 -10.81 -71.57 -11.06 -71.96 -11.32C-72.02 -11.38 -72.04 -11.45 -72.01 -11.51C-71.97 -11.58 -72.15 -11.84 -72.54 -12.29C-72.61 -12.55 -72.64 -13.11 -72.64 -13.95L-72.64 -15.9C-72.64 -16.16 -72.61 -16.41 -72.54 -16.63C-72.48 -16.86 -72.48 -17.17 -72.54 -17.56L-72.45 -19.12C-72.51 -19.71 -72.51 -20.36 -72.45 -21.07C-72.38 -21.79 -72.41 -22.44 -72.54 -23.02C-72.67 -23.54 -72.77 -24 -72.84 -24.39C-72.9 -24.78 -72.97 -25.2 -73.03 -25.66C-73.1 -26.37 -73.1 -27.12 -73.03 -27.9C-72.97 -28.68 -73 -29.43 -73.13 -30.15C-73.19 -30.73 -73.31 -31.23 -73.47 -31.66C-73.63 -32.08 -73.68 -32.45 -73.62 -32.78C-73.55 -33.17 -73.41 -33.46 -73.18 -33.66C-72.95 -33.85 -72.77 -34.14 -72.64 -34.54C-72.51 -34.86 -72.46 -35.23 -72.49 -35.66C-72.53 -36.08 -72.54 -36.49 -72.54 -36.88C-72.41 -37.98 -72.36 -39.17 -72.4 -40.44C-72.43 -41.71 -72.48 -42.89 -72.54 -44C-72.54 -44.32 -72.58 -44.68 -72.64 -45.07C-72.71 -45.46 -72.74 -45.82 -72.74 -46.14C-72.74 -46.34 -72.71 -46.55 -72.64 -46.78C-72.58 -47.01 -72.54 -47.22 -72.54 -47.41C-72.54 -47.74 -72.56 -48.05 -72.59 -48.34C-72.62 -48.63 -72.64 -48.94 -72.64 -49.27C-72.64 -49.59 -72.66 -49.87 -72.69 -50.1C-72.72 -50.32 -72.74 -50.6 -72.74 -50.92C-72.8 -51.64 -72.8 -52.42 -72.74 -53.27C-72.67 -54.11 -72.64 -54.96 -72.64 -55.8L-72.64 -56.97C-72.58 -58.08 -72.54 -59.17 -72.54 -60.24C-72.54 -61.31 -72.51 -62.34 -72.45 -63.31C-72.38 -63.51 -72.33 -63.69 -72.3 -63.85C-72.27 -64.01 -72.22 -64.19 -72.15 -64.39C-72.15 -65.04 -72.06 -65.59 -71.86 -66.05L-71.47 -67.02C-71.34 -67.34 -71.21 -67.57 -71.08 -67.7C-70.62 -68.16 -70.17 -68.88 -69.71 -69.85C-69.45 -69.92 -69.26 -70.03 -69.13 -70.19C-69 -70.35 -68.87 -70.5 -68.74 -70.63C-68.67 -70.76 -68.61 -70.83 -68.54 -70.83C-68.48 -70.83 -68.25 -71.05 -67.86 -71.51L-67.52 -71.85C-67.42 -71.95 -67.21 -72.09 -66.89 -72.29C-66.76 -72.35 -66.67 -72.42 -66.64 -72.48C-66.61 -72.55 -66.3 -72.81 -65.71 -73.27C-65.52 -73.4 -65.32 -73.49 -65.13 -73.56C-64.93 -73.62 -64.77 -73.72 -64.64 -73.85C-64.51 -73.66 -64.36 -73.59 -64.2 -73.66C-64.04 -73.72 -63.91 -73.85 -63.81 -74.05C-63.71 -74.24 -63.67 -74.45 -63.67 -74.68C-63.67 -74.91 -63.8 -75.05 -64.06 -75.12Z M2.03 -73.46C1.77 -73.59 1.57 -73.54 1.44 -73.31C1.31 -73.09 1.18 -72.91 1.05 -72.78C0.73 -72.45 0.37 -72.19 -0.02 -72C-0.15 -71.93 -0.33 -71.88 -0.56 -71.85C-0.78 -71.82 -1 -71.77 -1.19 -71.7C-1.39 -71.57 -1.56 -71.46 -1.73 -71.36C-1.89 -71.27 -2.26 -71.12 -2.85 -70.92C-3.89 -70.53 -4.86 -70.47 -5.78 -70.73C-6.36 -70.86 -7.03 -70.92 -7.78 -70.92L-9.97 -70.92C-10.62 -70.99 -11.24 -71.04 -11.82 -71.07C-12.41 -71.1 -12.96 -71.09 -13.48 -71.02C-13.87 -71.02 -14.25 -70.97 -14.6 -70.88C-14.96 -70.78 -15.34 -70.73 -15.73 -70.73C-16.64 -70.66 -17.58 -70.63 -18.56 -70.63L-21.38 -70.63C-21.71 -70.63 -22.2 -70.57 -22.85 -70.44C-23.11 -70.44 -23.34 -70.47 -23.53 -70.53C-23.73 -70.6 -23.95 -70.63 -24.21 -70.63C-24.99 -70.57 -25.81 -70.53 -26.65 -70.53C-27.5 -70.53 -28.28 -70.5 -28.99 -70.44C-29.97 -70.37 -30.9 -70.35 -31.77 -70.39C-32.65 -70.42 -33.55 -70.4 -34.46 -70.34L-38.55 -70.34C-39.01 -70.34 -39.43 -70.35 -39.82 -70.39C-40.21 -70.42 -40.57 -70.4 -40.9 -70.34C-41.22 -70.34 -41.55 -70.32 -41.87 -70.29C-42.2 -70.26 -42.52 -70.21 -42.85 -70.14C-43.04 -70.34 -43.25 -70.4 -43.48 -70.34C-43.71 -70.27 -43.92 -70.24 -44.12 -70.24C-44.25 -70.24 -44.34 -70.27 -44.41 -70.34C-44.47 -70.4 -44.8 -70.4 -45.38 -70.34C-45.84 -70.4 -46.31 -70.42 -46.8 -70.39C-47.29 -70.35 -47.99 -70.5 -48.9 -70.83C-49.09 -70.89 -49.29 -70.92 -49.48 -70.92C-49.68 -70.92 -49.84 -70.96 -49.97 -71.02C-50.16 -71.15 -50.33 -71.27 -50.46 -71.36C-50.59 -71.46 -50.72 -71.57 -50.85 -71.7L-52.21 -72.48C-52.47 -72.61 -52.72 -72.74 -52.94 -72.88C-53.17 -73 -53.58 -73.23 -54.16 -73.56C-54.42 -73.69 -54.88 -73.95 -55.53 -74.34C-55.85 -74.53 -56.15 -74.74 -56.41 -74.97C-56.67 -75.2 -56.96 -75.38 -57.29 -75.51C-57.55 -76.03 -58 -76.29 -58.65 -76.29C-58.85 -76.23 -58.86 -76.11 -58.7 -75.95C-58.54 -75.79 -58.75 -75.61 -59.33 -75.41C-59.2 -74.24 -59.12 -73.18 -59.09 -72.24C-59.06 -71.3 -59.01 -70.47 -58.94 -69.75C-59.01 -69.75 -58.98 -69.7 -58.85 -69.61C-58.72 -69.51 -58.68 -69.17 -58.75 -68.58C-58.68 -68.39 -58.62 -68.16 -58.55 -67.9C-58.49 -67.64 -58.42 -67.41 -58.36 -67.22C-58.29 -66.89 -58.28 -66.62 -58.31 -66.39C-58.34 -66.16 -58.33 -65.92 -58.26 -65.66C-58.26 -65.53 -58.23 -65.43 -58.16 -65.36C-58.1 -65.3 -57.97 -64.91 -57.77 -64.19C-57.64 -63.74 -57.55 -63.28 -57.48 -62.83C-57.42 -62.37 -57.32 -61.88 -57.19 -61.36C-56.86 -60.19 -56.64 -58.96 -56.51 -57.66C-56.37 -56.36 -56.18 -55.12 -55.92 -53.95C-55.85 -53.69 -55.79 -53.45 -55.72 -53.22C-55.66 -52.99 -55.59 -52.78 -55.53 -52.58C-55.4 -52.13 -55.38 -51.69 -55.48 -51.27C-55.58 -50.84 -55.59 -50.4 -55.53 -49.95C-55.53 -49.69 -55.46 -49.45 -55.33 -49.22C-55.2 -48.99 -55.11 -48.71 -55.04 -48.39C-55.04 -48.06 -55.06 -47.74 -55.09 -47.41C-55.12 -47.09 -54.98 -46.86 -54.65 -46.73C-54.33 -46.79 -54.13 -46.97 -54.07 -47.27C-54 -47.56 -53.94 -47.84 -53.87 -48.1C-53.87 -48.36 -53.71 -48.78 -53.38 -49.36C-53.25 -49.62 -53.16 -49.88 -53.09 -50.14C-53.03 -50.4 -52.93 -50.63 -52.8 -50.83C-52.54 -51.61 -52.31 -52.4 -52.11 -53.22C-51.92 -54.03 -51.63 -54.96 -51.24 -56L-50.46 -57.36C-50.26 -57.82 -49.98 -58.27 -49.63 -58.73C-49.27 -59.18 -48.83 -59.84 -48.31 -60.68C-48.12 -61.01 -47.9 -61.25 -47.68 -61.41C-47.45 -61.57 -46.94 -61.88 -46.16 -62.34C-45.71 -62.47 -45.22 -62.79 -44.7 -63.31C-44.57 -62.99 -44.36 -62.88 -44.07 -62.97C-43.77 -63.07 -43.24 -63.22 -42.46 -63.41L-41.38 -63.41C-40.8 -63.48 -40.18 -63.56 -39.53 -63.66C-38.88 -63.75 -38.2 -63.8 -37.48 -63.8C-36.96 -63.74 -36.47 -63.67 -36.02 -63.61C-35.56 -63.54 -35.08 -63.51 -34.55 -63.51C-34.03 -63.57 -33.51 -63.67 -32.99 -63.8C-32.47 -63.93 -31.99 -63.93 -31.53 -63.8C-31.27 -62.76 -31.16 -61.74 -31.19 -60.73C-31.22 -59.72 -31.01 -58.53 -30.55 -57.17C-30.36 -56.78 -30.25 -56.37 -30.21 -55.95C-30.18 -55.53 -30.07 -55.02 -29.87 -54.44C-29.61 -53.53 -29.43 -52.58 -29.34 -51.61C-29.24 -50.63 -29.12 -49.66 -28.99 -48.68C-28.86 -47.38 -28.73 -46.14 -28.6 -44.97C-28.47 -43.8 -28.38 -42.6 -28.31 -41.36C-28.25 -40.84 -28.23 -40.18 -28.26 -39.36C-28.29 -38.55 -28.28 -37.88 -28.21 -37.36C-28.15 -36.78 -28.1 -36.18 -28.07 -35.56C-28.03 -34.94 -27.99 -34.34 -27.92 -33.75C-27.92 -33.23 -27.94 -32.7 -27.97 -32.15C-28 -31.59 -27.99 -30.99 -27.92 -30.34C-27.92 -30.02 -27.9 -29.67 -27.87 -29.32C-27.84 -28.96 -27.79 -28.62 -27.73 -28.29L-27.43 -26.24C-27.43 -25.92 -27.47 -25.61 -27.53 -25.32C-27.6 -25.02 -27.53 -24.52 -27.34 -23.8C-27.21 -23.41 -27.12 -23.04 -27.09 -22.68C-27.06 -22.32 -26.98 -21.98 -26.85 -21.66C-26.98 -21.4 -27.11 -21.15 -27.24 -20.93C-27.37 -20.7 -27.5 -20.42 -27.63 -20.1C-27.69 -19.9 -27.71 -19.71 -27.68 -19.51C-27.64 -19.32 -27.66 -19.09 -27.73 -18.83C-27.73 -18.57 -27.76 -18.36 -27.82 -18.19C-27.89 -18.03 -27.92 -17.76 -27.92 -17.37C-27.92 -16.52 -27.99 -15.77 -28.12 -15.12C-28.12 -14.21 -28.13 -13.48 -28.16 -12.93C-28.2 -12.37 -28.28 -11.77 -28.41 -11.12C-28.54 -10.41 -28.93 -9.53 -29.58 -8.49C-29.71 -8.23 -29.9 -7.9 -30.16 -7.51C-30.42 -7.32 -30.75 -7.09 -31.14 -6.83L-33.19 -4.78L-35.24 -2.73C-35.63 -2.54 -36 -2.29 -36.36 -2C-36.72 -1.71 -37.29 -1.3 -38.07 -0.78C-38.39 -0.59 -38.72 -0.37 -39.04 -0.15C-39.37 0.08 -39.53 0.42 -39.53 0.88C-38.75 1.01 -38.02 0.96 -37.34 0.73C-36.65 0.5 -35.95 0.33 -35.24 0.2C-34.52 0 -33.79 -0.16 -33.04 -0.29C-32.29 -0.42 -31.53 -0.55 -30.75 -0.68C-29.45 -0.88 -28.12 -1.09 -26.75 -1.32C-25.38 -1.54 -24.12 -1.82 -22.95 -2.15C-22.49 -2.28 -22.07 -2.36 -21.68 -2.39C-21.29 -2.42 -20.86 -2.47 -20.41 -2.54C-19.76 -2.67 -19.27 -2.73 -18.95 -2.73C-17.45 -3.06 -16.12 -3.25 -14.95 -3.32C-14.36 -3.45 -13.82 -3.53 -13.34 -3.56C-12.85 -3.59 -12.34 -3.67 -11.82 -3.8C-11.69 -3.87 -11.55 -3.9 -11.38 -3.9C-11.22 -3.9 -10.98 -4.13 -10.65 -4.59C-10.72 -4.91 -10.88 -5.07 -11.14 -5.07C-11.4 -5.07 -11.92 -5.27 -12.7 -5.66C-13.61 -5.72 -14.52 -5.85 -15.43 -6.05C-16.34 -6.24 -17.06 -6.5 -17.58 -6.83C-18.17 -7.09 -18.73 -7.35 -19.29 -7.61C-19.84 -7.87 -20.28 -8.26 -20.6 -8.78C-20.8 -9.11 -20.91 -9.46 -20.95 -9.85C-20.98 -10.24 -21.06 -10.6 -21.19 -10.93C-21.38 -11.25 -21.53 -11.61 -21.63 -12C-21.73 -12.39 -21.84 -12.78 -21.97 -13.17C-22.03 -13.37 -22.13 -13.56 -22.26 -13.76C-22.39 -13.95 -22.49 -14.15 -22.56 -14.34C-22.62 -14.67 -22.65 -15.01 -22.65 -15.37C-22.65 -15.72 -22.69 -16.06 -22.75 -16.39C-22.82 -16.71 -22.88 -17.02 -22.95 -17.32C-23.01 -17.61 -23.08 -17.92 -23.14 -18.24C-23.21 -19.02 -23.22 -19.85 -23.19 -20.73C-23.16 -21.61 -23.21 -22.57 -23.34 -23.61C-23.4 -23.93 -23.43 -24.42 -23.43 -25.07C-23.5 -25.92 -23.53 -26.73 -23.53 -27.51C-23.53 -28.29 -23.47 -29.04 -23.34 -29.75C-23.21 -30.86 -23.01 -32.06 -22.75 -33.36C-22.69 -33.82 -22.6 -34.27 -22.51 -34.73C-22.41 -35.19 -22.33 -35.58 -22.26 -35.9C-22.13 -36.42 -22.07 -36.89 -22.07 -37.32C-22.07 -37.74 -22.03 -38.18 -21.97 -38.63C-21.84 -39.48 -21.71 -40.37 -21.58 -41.32C-21.45 -42.26 -21.38 -43.12 -21.38 -43.9L-21.24 -44.63C-21.21 -44.79 -21.16 -45.07 -21.09 -45.46C-21.03 -46.05 -20.96 -46.62 -20.9 -47.17C-20.83 -47.72 -20.73 -48.29 -20.6 -48.88C-20.54 -49.4 -20.46 -49.95 -20.36 -50.53C-20.26 -51.12 -20.21 -51.71 -20.21 -52.29C-20.15 -52.94 -20.15 -53.62 -20.21 -54.34C-20.21 -54.66 -20.2 -54.96 -20.17 -55.22C-20.13 -55.48 -20.21 -55.77 -20.41 -56.1C-20.28 -56.42 -20.21 -56.78 -20.21 -57.17L-20.21 -58.24C-20.15 -58.63 -20.1 -59.07 -20.07 -59.56C-20.03 -60.05 -19.99 -60.55 -19.92 -61.07C-19.86 -61.39 -19.82 -61.67 -19.82 -61.9C-19.82 -62.13 -19.79 -62.4 -19.73 -62.73C-19.6 -63.05 -19.5 -63.4 -19.43 -63.75C-19.37 -64.11 -19.27 -64.45 -19.14 -64.78L-17.97 -65.17C-17.58 -65.3 -17.12 -65.43 -16.6 -65.56C-16.15 -65.62 -15.66 -65.67 -15.14 -65.7C-14.62 -65.74 -14.13 -65.75 -13.68 -65.75C-13.42 -65.75 -13.17 -65.7 -12.95 -65.61C-12.72 -65.51 -12.44 -65.43 -12.12 -65.36C-11.53 -65.23 -10.98 -65.15 -10.46 -65.12C-9.94 -65.09 -9.42 -64.97 -8.9 -64.78C-8.12 -64.45 -7.66 -64.16 -7.53 -63.9C-7.4 -63.64 -7.17 -63.15 -6.85 -62.44C-6.52 -61.79 -6.25 -61.09 -6.02 -60.34C-5.79 -59.59 -5.48 -58.76 -5.09 -57.85C-5.03 -57.72 -4.96 -57.56 -4.9 -57.36C-4.83 -57.17 -4.73 -56.71 -4.6 -56C-4.54 -55.87 -4.48 -55.72 -4.41 -55.56C-4.34 -55.4 -4.21 -54.96 -4.02 -54.24C-3.89 -53.85 -3.76 -53.43 -3.63 -52.97L-3.04 -50.92C-2.85 -50.4 -2.69 -49.92 -2.56 -49.46C-2.49 -49.14 -2.46 -48.81 -2.46 -48.49C-2.46 -48.16 -2.43 -47.84 -2.36 -47.51C-2.23 -46.99 -2.1 -46.52 -1.97 -46.1C-1.84 -45.67 -1.78 -45.27 -1.78 -44.88L-1.78 -44.14C-1.78 -43.79 -1.61 -43.58 -1.29 -43.51C-0.7 -43.84 -0.43 -44.37 -0.46 -45.12C-0.49 -45.87 -0.51 -46.53 -0.51 -47.12C-0.51 -47.64 -0.47 -48.19 -0.41 -48.78C-0.34 -49.36 -0.28 -49.92 -0.21 -50.44C-0.15 -50.96 -0.08 -51.49 -0.02 -52.05C0.05 -52.6 0.08 -53.14 0.08 -53.66C0.14 -54.37 0.16 -55.1 0.13 -55.85C0.09 -56.6 0.18 -57.56 0.37 -58.73L0.37 -59.75C0.37 -60.11 0.4 -60.49 0.47 -60.88C0.53 -61.33 0.61 -61.75 0.71 -62.14C0.81 -62.53 0.89 -62.96 0.96 -63.41L1.15 -64.78L1.35 -66.14C1.35 -66.53 1.33 -66.92 1.3 -67.31C1.26 -67.7 1.28 -68.09 1.35 -68.49C1.35 -68.81 1.41 -69.23 1.54 -69.75C1.67 -70.27 1.74 -70.66 1.74 -70.92C1.8 -71.05 1.82 -71.18 1.79 -71.31C1.75 -71.44 1.83 -71.7 2.03 -72.09C2.16 -72.68 2.16 -73.14 2.03 -73.46Z M27.04 -5.37C26.85 -5.89 26.65 -6.39 26.46 -6.88C26.26 -7.37 26.26 -7.93 26.46 -8.59C26.26 -8.78 26.18 -9.01 26.21 -9.27C26.25 -9.53 26.2 -10.05 26.07 -10.83C25.94 -11.54 25.82 -12.24 25.73 -12.93C25.63 -13.61 25.58 -14.34 25.58 -15.12C25.64 -15.45 25.69 -15.72 25.73 -15.95C25.76 -16.18 25.74 -16.52 25.68 -16.97C25.74 -17.24 25.82 -17.48 25.92 -17.71C26.02 -17.93 26.1 -18.21 26.16 -18.54C26.23 -18.86 26.28 -19.17 26.31 -19.46C26.34 -19.76 26.36 -20.06 26.36 -20.39C26.75 -20.91 27.11 -21.4 27.43 -21.85C27.76 -22.31 28.08 -22.8 28.41 -23.32C28.8 -23.77 29.19 -24.21 29.58 -24.63C29.97 -25.06 30.36 -25.46 30.75 -25.85L33.48 -27.8C34.39 -28.45 35.43 -29.23 36.6 -30.15C36.8 -30.15 37.19 -30.41 37.77 -30.93C38.29 -31.32 38.81 -31.67 39.34 -32C39.86 -32.32 40.57 -32.78 41.48 -33.36C41.61 -33.43 41.69 -33.49 41.73 -33.56C41.76 -33.62 42.07 -33.82 42.65 -34.14C42.85 -34.28 43.03 -34.42 43.19 -34.58C43.35 -34.75 43.53 -34.89 43.73 -35.02C44.12 -35.41 44.52 -35.72 44.94 -35.95C45.37 -36.18 45.74 -36.52 46.07 -36.97L47.14 -37.66C47.33 -37.79 47.56 -37.93 47.82 -38.1C48.08 -38.26 48.31 -38.4 48.51 -38.54C48.7 -38.73 49.09 -38.99 49.68 -39.32C49.94 -39.58 50.18 -39.87 50.41 -40.19C50.64 -40.52 50.81 -40.75 50.94 -40.88C51.01 -40.94 51.03 -40.97 50.99 -40.97C50.96 -40.97 51.2 -41.23 51.72 -41.75C51.79 -41.75 52.11 -42.18 52.7 -43.02C52.7 -43.09 52.73 -43.1 52.8 -43.07C52.86 -43.04 53.12 -43.32 53.58 -43.9C53.71 -44.1 53.82 -44.32 53.92 -44.58C54.02 -44.84 54.2 -45 54.46 -45.07C54.59 -45.72 54.88 -46.4 55.33 -47.12C55.46 -47.32 55.61 -47.49 55.77 -47.66C55.94 -47.82 56.08 -48.03 56.21 -48.29C56.34 -48.42 56.39 -48.58 56.36 -48.78C56.32 -48.97 56.44 -49.14 56.7 -49.27C56.7 -49.59 56.77 -49.92 56.9 -50.24L57.29 -51.22C57.35 -51.35 57.38 -51.49 57.38 -51.66C57.38 -51.82 57.55 -52.29 57.87 -53.07C57.94 -53.2 57.95 -53.35 57.92 -53.51C57.89 -53.67 57.97 -53.92 58.16 -54.24C58.29 -54.44 58.31 -54.58 58.21 -54.68C58.11 -54.78 58.13 -55.02 58.26 -55.41C58.39 -56.06 58.41 -56.58 58.31 -56.97C58.21 -57.36 58.16 -57.82 58.16 -58.34C58.1 -58.92 58.05 -59.46 58.02 -59.95C57.98 -60.44 57.94 -60.84 57.87 -61.17L57.68 -62.14L57.48 -63.12C57.35 -63.64 57.22 -64.08 57.09 -64.44C56.96 -64.79 56.77 -65.17 56.51 -65.56C56.38 -66.01 56.15 -66.37 55.82 -66.63C55.69 -66.96 55.5 -67.36 55.24 -67.85C54.98 -68.34 54.75 -68.68 54.55 -68.88C54.42 -69.01 54.38 -69.07 54.41 -69.07C54.44 -69.07 54.29 -69.33 53.97 -69.85C53.64 -70.24 53.22 -70.6 52.7 -70.92C52.18 -71.25 51.66 -71.64 51.14 -72.09L50.85 -72.39C50.78 -72.45 50.42 -72.75 49.77 -73.27L49.43 -73.61C49.33 -73.7 48.9 -73.92 48.12 -74.24C47.79 -74.31 47.43 -74.32 47.04 -74.29C46.65 -74.26 46.29 -74.31 45.97 -74.44C45.71 -74.5 45.43 -74.58 45.14 -74.68C44.85 -74.78 44.25 -74.86 43.33 -74.92C43.07 -74.92 42.86 -74.96 42.7 -75.02C42.54 -75.09 42.36 -75.15 42.16 -75.22C41.64 -75.28 41.07 -75.3 40.46 -75.27C39.84 -75.23 39.34 -75.18 38.94 -75.12C38.03 -75.05 37.06 -75.04 36.02 -75.07C34.98 -75.1 33.87 -74.96 32.7 -74.63C32.31 -74.57 31.94 -74.57 31.58 -74.63C31.22 -74.7 30.85 -74.66 30.46 -74.53C30.2 -74.53 29.95 -74.48 29.73 -74.39C29.5 -74.29 29.22 -74.21 28.9 -74.14C28.57 -74.08 28.26 -74.05 27.97 -74.05C27.68 -74.05 27.37 -74.01 27.04 -73.95C26.91 -73.88 26.78 -73.83 26.65 -73.8C26.52 -73.77 26.16 -73.69 25.58 -73.56C25.45 -73.56 24.9 -73.46 23.92 -73.27C23.6 -73.2 23.27 -73.01 22.95 -72.68C22.43 -72.55 21.95 -72.47 21.53 -72.44C21.11 -72.4 20.54 -72.22 19.82 -71.9C19.5 -71.83 19.29 -71.79 19.19 -71.75C19.09 -71.72 18.75 -71.57 18.17 -71.31C17.97 -71.18 17.68 -70.92 17.29 -70.53C17.09 -70.4 16.88 -70.24 16.65 -70.05C16.43 -69.85 16.25 -69.69 16.12 -69.56C15.92 -69.43 15.77 -69.28 15.68 -69.12C15.58 -68.96 15.34 -68.68 14.95 -68.29C14.82 -68.16 14.65 -68.05 14.46 -67.95C14.26 -67.85 14.1 -67.74 13.97 -67.61C13.84 -67.48 13.74 -67.31 13.68 -67.12C13.61 -66.92 13.51 -66.76 13.38 -66.63C13.25 -66.5 13.11 -66.39 12.95 -66.29C12.78 -66.19 12.67 -66.05 12.6 -65.85L12.26 -65.17C12.17 -64.97 12.02 -64.62 11.82 -64.1C11.76 -63.96 11.68 -63.79 11.58 -63.56C11.48 -63.33 11.37 -63.12 11.24 -62.92C11.11 -62.66 11.03 -62.49 10.99 -62.39C10.96 -62.29 10.85 -61.98 10.65 -61.46C10.52 -61.14 10.39 -60.79 10.26 -60.44C10.13 -60.08 10 -59.77 9.87 -59.51C9.87 -59.38 9.89 -59.28 9.92 -59.22C9.95 -59.15 9.84 -58.89 9.58 -58.44C9.52 -58.11 9.48 -57.75 9.48 -57.36C9.48 -56.97 9.38 -56.23 9.19 -55.12L9.09 -54.05C9.03 -53.27 9.09 -52.6 9.29 -52.05C9.48 -51.49 9.68 -50.86 9.87 -50.14C9.94 -50.01 9.99 -49.85 10.02 -49.66C10.05 -49.46 10.13 -49.27 10.26 -49.07C10.39 -48.88 10.46 -48.66 10.46 -48.44C10.46 -48.21 10.59 -47.93 10.85 -47.61C10.91 -47.48 10.93 -47.38 10.9 -47.32C10.86 -47.25 11.08 -47.02 11.53 -46.63C11.66 -46.5 11.74 -46.32 11.78 -46.1C11.81 -45.87 11.86 -45.69 11.92 -45.56L12.36 -45.12C12.52 -44.96 12.7 -44.75 12.9 -44.49C13.29 -43.97 13.71 -43.49 14.17 -43.07C14.62 -42.65 15.01 -42.21 15.34 -41.75C15.47 -41.49 15.76 -41.04 16.21 -40.39C16.47 -40.06 16.73 -39.79 16.99 -39.56C17.25 -39.33 17.48 -39.06 17.68 -38.73C19.04 -38.34 20.65 -38.21 22.51 -38.34C24.36 -38.47 26.03 -38.6 27.53 -38.73C28.05 -38.86 28.55 -38.93 29.04 -38.93C29.53 -38.93 30 -38.99 30.46 -39.12C31.04 -39.19 31.47 -39.25 31.73 -39.32C31.99 -39.38 32.28 -39.54 32.6 -39.8C33.12 -40.19 33.58 -40.52 33.97 -40.78C34.1 -40.84 34.23 -40.89 34.36 -40.93C34.49 -40.96 34.88 -41.2 35.53 -41.66C35.86 -41.98 36.18 -42.27 36.51 -42.53L37.48 -43.32C37.87 -43.77 38.29 -44.19 38.75 -44.58C38.81 -44.71 39.24 -45.14 40.02 -45.85C40.08 -45.98 40.13 -46.14 40.16 -46.34C40.2 -46.53 40.25 -46.73 40.31 -46.92C40.38 -47.12 40.46 -47.3 40.55 -47.46C40.65 -47.62 40.7 -48 40.7 -48.58C40.77 -49.1 40.77 -49.45 40.7 -49.61C40.64 -49.77 40.51 -50.01 40.31 -50.34C40.18 -50.47 40.02 -50.79 39.82 -51.32L39.24 -52.29C39.04 -52.62 38.81 -52.91 38.55 -53.17C38.55 -53.36 38.52 -53.54 38.46 -53.71C38.39 -53.87 38.39 -54.08 38.46 -54.34C37.94 -54.53 37.47 -54.83 37.04 -55.22C36.62 -55.61 36.15 -55.97 35.63 -56.29C35.3 -56.42 35.03 -56.57 34.8 -56.73C34.57 -56.89 34.29 -57.04 33.97 -57.17C33.71 -57.3 33.45 -57.46 33.19 -57.66C32.93 -57.85 32.67 -57.98 32.41 -58.05C32.21 -58.05 32 -58.01 31.77 -57.95C31.55 -57.88 31.4 -57.92 31.34 -58.05L29.68 -57.56C29.16 -57.56 28.64 -57.23 28.12 -56.58C27.99 -56.32 27.87 -56.11 27.77 -55.95C27.68 -55.79 27.56 -55.64 27.43 -55.51C27.24 -55.25 27.12 -55.09 27.09 -55.02C27.06 -54.96 27.01 -54.76 26.95 -54.44C26.69 -54.31 26.52 -53.88 26.46 -53.17C26.33 -52.71 26.18 -52.26 26.02 -51.8C25.86 -51.35 25.74 -50.89 25.68 -50.44C25.55 -49.07 25.73 -47.84 26.21 -46.73C26.7 -45.62 27.56 -45.14 28.8 -45.27C29.32 -45.33 29.81 -45.51 30.26 -45.8C30.72 -46.1 31.21 -46.4 31.73 -46.73C32.12 -46.99 32.54 -47.25 32.99 -47.51C33.25 -47.64 33.51 -47.79 33.77 -47.95C34.03 -48.11 34.16 -48.36 34.16 -48.68C33.84 -48.81 33.51 -48.79 33.19 -48.63C32.86 -48.47 32.57 -48.29 32.31 -48.1C31.79 -48.1 31.32 -47.95 30.9 -47.66C30.47 -47.36 29.87 -47.64 29.09 -48.49C28.96 -49.07 28.86 -49.67 28.8 -50.29C28.73 -50.91 28.77 -51.8 28.9 -52.97C29.03 -53.3 29.12 -53.59 29.19 -53.85C29.25 -54.11 29.45 -54.34 29.77 -54.53C30.1 -54.73 30.68 -54.89 31.53 -55.02C31.99 -55.02 32.39 -54.97 32.75 -54.88C33.11 -54.78 33.45 -54.66 33.77 -54.53C34.29 -54.47 34.78 -54.45 35.24 -54.49C35.69 -54.52 36.02 -54.47 36.21 -54.34C36.47 -54.21 36.68 -53.98 36.85 -53.66L37.29 -52.78C37.48 -52.13 37.61 -51.49 37.68 -50.88C37.74 -50.26 37.77 -49.66 37.77 -49.07C37.9 -48.42 37.9 -47.84 37.77 -47.32C37.64 -46.92 37.47 -46.55 37.24 -46.19C37.01 -45.84 36.8 -45.56 36.6 -45.36C36.41 -45.17 36.12 -44.84 35.73 -44.39C35.53 -44.19 35.34 -44.03 35.14 -43.9C34.94 -43.77 34.65 -43.51 34.26 -43.12C34.07 -43.12 33.74 -42.96 33.29 -42.63C32.96 -42.5 32.64 -42.36 32.31 -42.19C31.99 -42.03 31.66 -41.88 31.34 -41.75C30.68 -41.56 30.03 -41.41 29.38 -41.32C28.73 -41.22 28.15 -41.17 27.63 -41.17C27.43 -41.1 26.91 -41.1 26.07 -41.17L25.09 -40.97C24.77 -40.91 24.44 -40.88 24.12 -40.88C23.73 -40.81 23.34 -40.8 22.95 -40.83C22.56 -40.86 22.16 -40.88 21.77 -40.88C20.93 -41.46 20.18 -42.14 19.53 -42.93C18.88 -43.71 18.1 -44.65 17.19 -45.75C17.06 -46.08 16.93 -46.42 16.8 -46.78C16.67 -47.14 16.44 -47.71 16.12 -48.49C15.86 -49.01 15.61 -49.48 15.38 -49.9C15.16 -50.32 14.98 -50.73 14.85 -51.12C14.78 -51.32 14.75 -51.54 14.75 -51.8C14.75 -52.06 14.72 -52.32 14.65 -52.58C14.52 -53.23 14.47 -53.72 14.51 -54.05C14.54 -54.37 14.62 -54.79 14.75 -55.31C14.82 -55.51 14.85 -55.74 14.85 -56C14.85 -56.26 15.01 -56.81 15.34 -57.66C15.47 -57.98 15.58 -58.31 15.68 -58.63C15.77 -58.96 15.89 -59.28 16.02 -59.61C16.15 -60.19 16.26 -60.6 16.36 -60.83C16.46 -61.05 16.73 -61.59 17.19 -62.44C17.32 -62.57 17.43 -62.66 17.53 -62.73C17.63 -62.79 17.81 -63.02 18.07 -63.41L19.04 -64.39C19.3 -64.84 19.63 -65.2 20.02 -65.46C20.15 -65.59 20.26 -65.69 20.36 -65.75C20.46 -65.82 20.86 -66.11 21.58 -66.63C21.9 -66.76 22.21 -66.91 22.51 -67.07C22.8 -67.23 23.11 -67.38 23.43 -67.51C23.5 -67.57 23.58 -67.61 23.68 -67.61C23.77 -67.61 24.18 -67.8 24.9 -68.19L25.97 -68.97C26.1 -69.1 26.25 -69.14 26.41 -69.07C26.57 -69.01 26.82 -69.1 27.14 -69.36C27.47 -69.36 27.92 -69.49 28.51 -69.75C28.7 -69.88 28.93 -69.95 29.19 -69.95C29.45 -69.95 29.68 -70.01 29.87 -70.14C30.13 -70.21 30.36 -70.29 30.55 -70.39C30.75 -70.48 30.98 -70.57 31.24 -70.63C31.37 -70.7 31.53 -70.71 31.73 -70.68C31.92 -70.65 32.18 -70.76 32.51 -71.02C33.03 -71.15 33.56 -71.28 34.12 -71.41C34.67 -71.54 35.24 -71.67 35.82 -71.8C36.34 -71.93 36.85 -72.03 37.34 -72.09C37.82 -72.16 38.36 -72.16 38.94 -72.09C39.07 -72.03 39.2 -71.98 39.34 -71.95C39.47 -71.92 39.89 -71.83 40.6 -71.7C40.99 -71.57 41.38 -71.38 41.77 -71.12C42.16 -70.86 42.55 -70.63 42.94 -70.44C43.4 -70.24 43.81 -70.01 44.16 -69.75C44.52 -69.49 44.9 -69.3 45.29 -69.17C45.61 -68.84 45.94 -68.55 46.26 -68.29C46.59 -68.03 46.91 -67.74 47.24 -67.41C47.63 -67.09 48 -66.78 48.36 -66.49C48.72 -66.19 48.96 -65.82 49.09 -65.36C49.22 -64.78 49.27 -64.13 49.24 -63.41C49.21 -62.7 49.12 -62.01 48.99 -61.36C48.86 -60 48.73 -58.79 48.6 -57.75C48.47 -56.71 48.28 -55.64 48.02 -54.53C48.02 -54.34 47.92 -53.98 47.72 -53.46C47.59 -53.14 47.5 -52.83 47.43 -52.53C47.37 -52.24 47.17 -51.74 46.85 -51.02C46.72 -50.7 46.64 -50.39 46.6 -50.1C46.57 -49.8 46.49 -49.53 46.36 -49.27C46.16 -49.01 45.94 -48.65 45.68 -48.19C45.61 -48.06 45.59 -47.93 45.63 -47.8C45.66 -47.67 45.42 -47.28 44.9 -46.63C44.7 -46.31 44.47 -46.03 44.21 -45.8C43.95 -45.58 43.69 -45.3 43.43 -44.97C43.3 -44.78 43.22 -44.58 43.19 -44.39C43.16 -44.19 43.08 -44.03 42.94 -43.9C42.82 -43.64 42.64 -43.43 42.41 -43.27C42.18 -43.1 41.97 -42.93 41.77 -42.73C41.64 -42.53 41.5 -42.32 41.33 -42.1C41.17 -41.87 40.99 -41.66 40.8 -41.46C40.6 -41.27 40.36 -41.06 40.07 -40.83C39.77 -40.6 39.56 -40.39 39.43 -40.19C39.37 -40.13 39.11 -39.84 38.65 -39.32L38.07 -38.73C37.87 -38.54 37.68 -38.37 37.48 -38.24C36.9 -37.72 36.26 -37.2 35.58 -36.68C34.9 -36.16 34.26 -35.61 33.68 -35.02C33.55 -34.83 33.38 -34.68 33.19 -34.58C32.99 -34.49 32.83 -34.34 32.7 -34.14L31.53 -33.17C31.14 -32.84 30.49 -32.39 29.58 -31.8C29.45 -31.67 29.35 -31.56 29.29 -31.46C29.22 -31.36 28.99 -31.19 28.6 -30.93L27.73 -30.05C27.47 -29.85 27.19 -29.71 26.9 -29.61C26.6 -29.51 26.39 -29.4 26.26 -29.27C26.13 -29.07 25.81 -28.84 25.29 -28.58C24.96 -28.32 24.73 -28.1 24.6 -27.9C24.47 -27.71 24.18 -27.32 23.73 -26.73C23.66 -26.6 23.63 -26.52 23.63 -26.49C23.63 -26.45 23.37 -26.08 22.85 -25.36C22.72 -25.24 22.59 -25.06 22.46 -24.83C22.33 -24.6 22.16 -24.36 21.97 -24.1C21.84 -23.84 21.71 -23.61 21.58 -23.41C21.45 -23.22 21.32 -22.96 21.19 -22.63C21.12 -22.44 21.09 -22.24 21.09 -22.05C21.09 -21.85 20.96 -21.5 20.7 -20.97L20.41 -20.24C20.34 -20.08 20.25 -19.9 20.12 -19.71C19.99 -19.45 19.86 -19.17 19.73 -18.88C19.6 -18.58 19.47 -18.24 19.34 -17.85C19.34 -17.79 19.3 -17.76 19.24 -17.76C19.17 -17.76 19.01 -17.4 18.75 -16.68C18.56 -16.29 18.41 -15.9 18.31 -15.51C18.21 -15.12 18.1 -14.73 17.97 -14.34C17.84 -14.15 17.74 -13.98 17.68 -13.85C17.61 -13.72 17.51 -13.56 17.38 -13.37C17.12 -12.65 16.93 -11.72 16.8 -10.58C16.67 -9.45 16.57 -8.32 16.51 -7.22C16.44 -6.5 16.39 -5.72 16.36 -4.88C16.33 -4.03 16.34 -3.25 16.41 -2.54C16.41 -1.76 16.49 -0.99 16.65 -0.24C16.82 0.5 16.83 1.24 16.7 1.95C17.09 2.08 17.48 2.11 17.87 2.05C18.26 1.98 18.62 1.89 18.95 1.76C19.21 1.69 19.43 1.63 19.63 1.56L20.21 1.37C20.8 1.24 21.43 1.12 22.12 1.02C22.8 0.93 23.43 0.81 24.02 0.68C24.8 0.55 25.63 0.34 26.51 0.05C27.38 -0.24 28.15 -0.49 28.8 -0.68L29.53 -0.83C29.69 -0.86 29.9 -0.91 30.16 -0.98C30.68 -1.11 31.16 -1.17 31.58 -1.17C32 -1.17 32.7 -1.27 33.68 -1.46C34.13 -1.59 34.54 -1.64 34.9 -1.61C35.25 -1.58 35.69 -1.53 36.21 -1.46C36.47 -1.4 36.73 -1.38 36.99 -1.41C37.25 -1.45 37.55 -1.46 37.87 -1.46C38.2 -1.4 38.51 -1.32 38.8 -1.22C39.09 -1.12 39.4 -1.07 39.73 -1.07C41.29 -0.88 42.93 -0.78 44.65 -0.78C46.38 -0.78 48.02 -0.68 49.58 -0.49L51.53 -0.24C52.31 -0.15 52.86 0 53.19 0.2C53.77 0.52 54.29 0.85 54.75 1.17C55.72 1.3 56.64 1.56 57.48 1.95C57.94 2.15 58.37 2.31 58.8 2.44C59.22 2.57 59.72 2.67 60.31 2.73C60.44 2.15 60.49 1.54 60.46 0.93C60.42 0.31 60.34 -0.42 60.21 -1.27C60.21 -1.46 60.16 -1.67 60.07 -1.9C59.97 -2.13 59.89 -2.34 59.82 -2.54C59.76 -2.86 59.74 -3.2 59.77 -3.56C59.81 -3.92 59.82 -4.29 59.82 -4.68C59.82 -5.01 59.81 -5.32 59.77 -5.61C59.74 -5.9 59.72 -6.21 59.72 -6.54C59.72 -7.06 59.71 -7.8 59.68 -8.78C59.64 -9.76 59.66 -10.8 59.72 -11.9C59.72 -12.1 59.69 -12.31 59.63 -12.54C59.56 -12.76 59.46 -13.2 59.33 -13.85C59.2 -14.37 59.17 -14.88 59.24 -15.37C59.3 -15.85 59.17 -16.62 58.85 -17.66C58.85 -17.72 58.86 -17.79 58.9 -17.85C58.93 -17.92 58.88 -18.28 58.75 -18.93C58.62 -19.51 58.52 -20.08 58.46 -20.63C58.39 -21.19 58.29 -21.72 58.16 -22.24C58.03 -22.57 57.94 -22.86 57.87 -23.12L57.68 -23.9C57.68 -24.23 57.71 -24.52 57.77 -24.78C57.84 -25.04 57.51 -25.23 56.8 -25.36C56.73 -24.65 56.67 -24.06 56.6 -23.61C56.54 -23.15 56.51 -22.67 56.51 -22.15C56.44 -21.95 56.44 -21.72 56.51 -21.46C56.57 -21.2 56.57 -20.97 56.51 -20.78C56.51 -20.58 56.44 -20.32 56.31 -20C56.18 -19.67 56.02 -19.15 55.82 -18.44C55.63 -17.92 55.48 -17.35 55.38 -16.73C55.29 -16.11 55.17 -15.54 55.04 -15.02C54.98 -14.89 54.93 -14.71 54.9 -14.49C54.86 -14.26 54.81 -14.08 54.75 -13.95C54.68 -13.76 54.65 -13.56 54.65 -13.37C54.65 -13.17 54.62 -13.01 54.55 -12.88C54.42 -12.42 54.25 -12 54.02 -11.61C53.79 -11.22 53.38 -10.54 52.8 -9.56C52.6 -9.3 52.42 -9.09 52.26 -8.93L51.72 -8.39C51.33 -7.93 50.94 -7.58 50.55 -7.32C50.42 -7.19 50.26 -7.11 50.07 -7.07C49.87 -7.04 49.64 -6.96 49.38 -6.83C49.19 -6.76 48.98 -6.7 48.75 -6.63C48.52 -6.57 48.05 -6.37 47.33 -6.05C47.2 -6.05 47.07 -6.06 46.94 -6.1C46.81 -6.13 46.46 -6.05 45.87 -5.85C45.61 -5.79 45.25 -5.72 44.8 -5.66C44.41 -5.66 44.05 -5.64 43.73 -5.61C43.4 -5.58 43.07 -5.56 42.75 -5.56L41.33 -5.56C40.72 -5.56 40.31 -5.53 40.12 -5.46C39.79 -5.59 39.5 -5.61 39.24 -5.51C38.98 -5.41 38.72 -5.33 38.46 -5.27C38.2 -5.27 37.95 -5.28 37.73 -5.32C37.5 -5.35 37.29 -5.37 37.09 -5.37C36.77 -5.3 36.34 -5.2 35.82 -5.07C35.3 -5.07 34.8 -5.09 34.31 -5.12C33.82 -5.15 33.32 -5.17 32.8 -5.17C32.41 -5.17 32.02 -5.14 31.63 -5.07C31.24 -5.01 30.88 -4.98 30.55 -4.98C30.29 -4.98 30.07 -5.01 29.87 -5.07L29.29 -5.27C28.9 -5.33 28.51 -5.33 28.12 -5.27C27.73 -5.2 27.37 -5.24 27.04 -5.37Z M97.81 -70.14C97.68 -70.34 97.57 -70.44 97.47 -70.44C97.37 -70.44 97.13 -70.34 96.74 -70.14C96.41 -70.01 96.07 -70 95.71 -70.09C95.36 -70.19 95.01 -70.24 94.69 -70.24C93.78 -70.24 92.79 -70.19 91.71 -70.09C90.64 -70 89.58 -69.98 88.54 -70.05C87.76 -70.05 86.98 -70.03 86.2 -70C85.42 -69.96 84.67 -70.01 83.96 -70.14C83.63 -70.21 83.36 -70.29 83.13 -70.39C82.9 -70.48 82.62 -70.57 82.3 -70.63C81.84 -70.7 81.39 -70.7 80.93 -70.63C80.48 -70.57 80.02 -70.57 79.57 -70.63C79.11 -70.7 78.59 -70.86 78.01 -71.12C77.16 -71.38 76.33 -71.57 75.52 -71.7C74.71 -71.83 73.81 -72 72.84 -72.19C72.64 -71.93 72.64 -71.75 72.84 -71.66C73.03 -71.56 73.23 -71.38 73.42 -71.12C73.62 -70.99 73.86 -70.88 74.15 -70.78C74.45 -70.68 74.66 -70.57 74.79 -70.44C74.92 -70.31 75.05 -70.22 75.18 -70.19C75.31 -70.16 75.5 -70.08 75.76 -69.95L76.64 -69.07C76.77 -68.94 76.9 -68.84 77.03 -68.78C77.16 -68.71 77.49 -68.39 78.01 -67.8C78.33 -67.48 78.67 -67.12 79.03 -66.73C79.39 -66.34 79.67 -65.98 79.86 -65.66C80.51 -64.75 81 -63.57 81.32 -62.14L81.52 -61.56C81.58 -61.36 81.65 -61.2 81.71 -61.07C81.78 -60.68 81.79 -60.29 81.76 -59.9C81.73 -59.51 81.81 -59.05 82.01 -58.53C82.14 -58.4 82.27 -58.05 82.4 -57.46L82.59 -55.9C82.66 -55.77 82.66 -55.67 82.59 -55.61C82.53 -55.54 82.53 -55.28 82.59 -54.83C82.66 -54.44 82.75 -54 82.88 -53.51C83.01 -53.02 83.05 -52.55 82.98 -52.1C82.98 -51.97 83 -51.9 83.03 -51.9C83.06 -51.9 83.05 -51.54 82.98 -50.83C82.98 -49.98 83.03 -49.1 83.13 -48.19C83.23 -47.28 83.34 -46.4 83.47 -45.56C83.47 -45.17 83.49 -44.78 83.52 -44.39C83.55 -44 83.57 -43.64 83.57 -43.32C83.57 -42.8 83.62 -42.24 83.71 -41.66C83.81 -41.07 83.89 -40.52 83.96 -40C83.96 -39.8 83.93 -39.58 83.86 -39.32C83.8 -39.06 83.76 -38.86 83.76 -38.73C83.76 -38.4 83.8 -38.14 83.86 -37.95C83.93 -37.75 83.96 -37.53 83.96 -37.27C83.89 -36.94 83.8 -36.63 83.66 -36.34C83.53 -36.05 83.53 -35.67 83.66 -35.22C82.82 -35.09 81.97 -34.97 81.13 -34.88C80.28 -34.78 79.37 -34.67 78.4 -34.54C77.94 -34.47 77.49 -34.42 77.03 -34.39C76.58 -34.36 76.12 -34.34 75.67 -34.34C75.14 -34.28 74.66 -34.21 74.2 -34.14C73.75 -34.08 73.29 -34.05 72.84 -34.05C72.51 -34.05 72.14 -34.06 71.71 -34.1C71.29 -34.13 70.69 -34.18 69.91 -34.24C69.39 -34.11 69.03 -34.05 68.84 -34.05C68.77 -34.05 68.71 -34.08 68.64 -34.14C68.58 -34.21 68.25 -34.27 67.67 -34.34C67.47 -34.41 67.26 -34.49 67.03 -34.58C66.8 -34.68 66.56 -34.8 66.3 -34.93C65.97 -35.06 65.7 -35.14 65.47 -35.17C65.24 -35.2 65.03 -35.32 64.84 -35.51L64.35 -36L63.76 -36.58L63.18 -37.17C62.98 -37.36 62.85 -37.59 62.79 -37.85C62.72 -37.98 62.69 -38.18 62.69 -38.44L62.69 -39.12C62.56 -40.16 62.46 -40.88 62.4 -41.27C62.4 -41.53 62.38 -41.87 62.35 -42.29C62.32 -42.71 62.3 -42.99 62.3 -43.12C62.3 -43.19 62.33 -43.58 62.4 -44.29C62.59 -44.49 62.72 -44.91 62.79 -45.56C62.92 -45.88 63.02 -46.14 63.08 -46.34C63.15 -46.53 63.34 -46.92 63.67 -47.51L63.81 -47.8L64.25 -48.68C64.38 -48.81 64.49 -48.97 64.59 -49.17C64.69 -49.36 64.8 -49.53 64.93 -49.66C65.19 -50.11 65.49 -50.44 65.81 -50.63C66.01 -50.7 66.3 -50.73 66.69 -50.73L67.37 -50.73C68.09 -50.66 68.75 -50.49 69.37 -50.19C69.99 -49.9 70.59 -49.62 71.18 -49.36C71.5 -48.97 71.94 -48.6 72.49 -48.24C73.05 -47.88 73.58 -47.06 74.1 -45.75C74.3 -45.36 74.38 -45.07 74.35 -44.88C74.32 -44.68 74.23 -44.45 74.1 -44.19C73.97 -43.8 73.83 -43.54 73.67 -43.41C73.5 -43.28 73.36 -43.06 73.23 -42.73C72.84 -42.34 72.3 -41.98 71.62 -41.66C70.93 -41.33 70.23 -41.23 69.52 -41.36C69.13 -41.62 68.89 -42.08 68.79 -42.73C68.69 -43.38 68.61 -44.06 68.54 -44.78C68.54 -44.97 68.56 -45.2 68.59 -45.46C68.62 -45.72 68.48 -45.85 68.15 -45.85C67.7 -45.72 67.44 -45.27 67.37 -44.49C67.05 -43.97 66.87 -43.32 66.84 -42.53C66.8 -41.75 67.11 -40.91 67.76 -40C68.09 -39.67 68.77 -39.46 69.81 -39.36C70.85 -39.27 71.63 -39.28 72.15 -39.41C72.67 -39.54 73.15 -39.82 73.57 -40.24C73.99 -40.67 74.49 -41.23 75.08 -41.95C75.21 -42.08 75.34 -42.24 75.47 -42.44C75.6 -42.63 75.7 -42.8 75.76 -42.93C75.89 -43.38 75.94 -43.92 75.91 -44.53C75.88 -45.15 75.83 -45.72 75.76 -46.24C75.7 -46.57 75.6 -46.97 75.47 -47.46C75.34 -47.95 75.01 -48.55 74.49 -49.27C74.17 -49.72 73.89 -50.06 73.67 -50.29C73.44 -50.52 73.16 -50.76 72.84 -51.02C72.51 -51.35 72.14 -51.66 71.71 -51.95C71.29 -52.24 70.79 -52.45 70.2 -52.58L69.57 -53.22C69.34 -53.45 69.06 -53.59 68.74 -53.66C68.61 -53.66 68.36 -53.62 68.01 -53.56C67.65 -53.49 67.44 -53.46 67.37 -53.46C67.18 -53.33 66.8 -53.27 66.25 -53.27C65.7 -53.27 65.03 -53.01 64.25 -52.49C64.06 -52.36 63.89 -52.23 63.76 -52.1C63.63 -51.97 63.28 -51.74 62.69 -51.41C62.56 -51.22 62.45 -51.02 62.35 -50.83C62.25 -50.63 62.14 -50.44 62.01 -50.24C61.81 -50.05 61.7 -49.84 61.67 -49.61C61.63 -49.38 61.45 -49.2 61.13 -49.07C60.87 -48.68 60.71 -48.21 60.64 -47.66C60.58 -47.1 60.38 -46.66 60.06 -46.34C60.12 -46.08 60.12 -45.84 60.06 -45.61C59.99 -45.38 59.99 -45.2 60.06 -45.07C59.8 -44.94 59.68 -44.63 59.71 -44.14C59.75 -43.66 59.63 -43.32 59.37 -43.12C59.31 -42.86 59.36 -42.7 59.52 -42.63C59.68 -42.57 59.67 -42.18 59.47 -41.46C59.41 -40.75 59.42 -40.01 59.52 -39.27C59.62 -38.52 59.73 -37.69 59.86 -36.78C59.93 -36.45 59.97 -36.1 60.01 -35.71C60.04 -35.32 60.12 -34.96 60.25 -34.63C60.38 -34.31 60.58 -34.01 60.84 -33.75C61.1 -33.49 61.29 -33.2 61.42 -32.88C61.75 -32.81 62.01 -32.67 62.2 -32.44C62.4 -32.21 62.63 -32.03 62.89 -31.9C63.08 -31.84 63.29 -31.8 63.52 -31.8C63.75 -31.8 64.02 -31.71 64.35 -31.51C64.74 -31.32 65.16 -31.17 65.62 -31.07C66.07 -30.97 66.46 -30.89 66.79 -30.83C67.24 -30.7 67.67 -30.65 68.06 -30.68C68.45 -30.71 68.9 -30.7 69.42 -30.63C70.66 -30.57 71.91 -30.47 73.18 -30.34C74.45 -30.21 75.63 -30.15 76.74 -30.15C77.97 -30.21 79.19 -30.27 80.4 -30.34C81.6 -30.41 82.79 -30.44 83.96 -30.44C84.09 -30.05 84.15 -29.66 84.15 -29.27C84.15 -28.88 84.12 -28.32 84.06 -27.61C84.06 -27.48 84.09 -27.36 84.15 -27.27C84.22 -27.17 84.25 -26.86 84.25 -26.34C84.38 -25.89 84.41 -25.58 84.35 -25.41C84.28 -25.25 84.25 -24.94 84.25 -24.49C84.25 -24.16 84.27 -23.74 84.3 -23.22C84.33 -22.7 84.35 -22.18 84.35 -21.66L84.54 -21.07C84.61 -20.88 84.61 -20.45 84.54 -19.8C84.41 -18.5 84.38 -17.11 84.45 -15.61C84.51 -14.11 84.54 -12.68 84.54 -11.32C84.54 -10.93 84.51 -10.52 84.45 -10.1C84.38 -9.67 84.35 -9.33 84.35 -9.07C84.35 -8.94 84.38 -8.83 84.45 -8.73C84.51 -8.63 84.45 -8.39 84.25 -8C84.19 -7.67 84.17 -7.46 84.2 -7.37C84.23 -7.27 84.09 -6.93 83.76 -6.34C83.5 -5.69 83.23 -5.06 82.93 -4.44C82.64 -3.82 82.43 -3.25 82.3 -2.73C82.17 -2.6 82.07 -2.55 82.01 -2.59C81.94 -2.62 81.71 -2.34 81.32 -1.76C81.19 -1.63 81.05 -1.46 80.88 -1.27C80.72 -1.07 80.54 -0.91 80.35 -0.78C80.02 -0.46 79.68 -0.18 79.32 0.05C78.97 0.28 78.62 0.59 78.3 0.98C77.91 1.11 77.57 1.3 77.27 1.56C76.98 1.82 76.61 2.18 76.15 2.63C75.96 2.63 75.63 2.86 75.18 3.32L74.2 4.1C73.88 4.36 73.68 4.68 73.62 5.07C74.2 5.2 74.75 5.19 75.28 5.02C75.8 4.86 76.28 4.75 76.74 4.68C76.93 4.68 77.13 4.7 77.32 4.73C77.52 4.76 77.71 4.75 77.91 4.68C78.1 4.68 78.27 4.63 78.4 4.54C78.53 4.44 78.72 4.36 78.98 4.29C79.31 4.16 79.62 4.1 79.91 4.1L80.74 4.1C80.8 4.1 80.9 4.08 81.03 4.05C81.16 4.02 81.58 3.93 82.3 3.8C82.88 3.67 83.45 3.54 84.01 3.41C84.56 3.28 85.1 3.15 85.62 3.02C86.14 2.89 86.69 2.8 87.27 2.73C87.86 2.67 88.45 2.57 89.03 2.44C89.16 2.44 89.32 2.41 89.52 2.34C89.71 2.28 89.91 2.24 90.1 2.24C91.92 1.98 93.58 1.95 95.08 2.15C96.57 2.34 97.94 2.5 99.18 2.63C99.5 2.63 99.84 2.65 100.2 2.68C100.56 2.72 100.9 2.73 101.23 2.73L102.3 2.73C102.69 2.73 103.05 2.63 103.37 2.44C103.37 1.92 103.19 1.58 102.83 1.41C102.48 1.25 102.14 1.07 101.81 0.88L101.23 0.29C101.03 0.1 100.83 -0.07 100.64 -0.2C99.99 -0.85 99.08 -1.53 97.91 -2.24C97.78 -2.37 97.63 -2.47 97.47 -2.54C97.31 -2.6 97.06 -2.73 96.74 -2.93C96.48 -3.19 96.2 -3.43 95.91 -3.66C95.62 -3.89 95.31 -4.16 94.98 -4.49C94.66 -4.88 94.3 -5.24 93.91 -5.56C93.71 -5.76 93.55 -6 93.42 -6.29C93.29 -6.59 93.06 -7.09 92.74 -7.8C92.74 -7.87 92.77 -7.9 92.84 -7.9C92.9 -7.9 92.77 -8.29 92.45 -9.07C92.32 -9.4 92.25 -9.67 92.25 -9.9C92.25 -10.13 92.22 -10.41 92.15 -10.73C92.09 -11.06 92.01 -11.38 91.91 -11.71C91.81 -12.03 91.73 -12.42 91.66 -12.88C91.66 -13.27 91.7 -13.71 91.76 -14.19C91.83 -14.68 91.73 -15.22 91.47 -15.8C91.34 -16.13 91.21 -16.44 91.08 -16.73C90.95 -17.02 90.75 -17.43 90.49 -17.95C90.3 -18.47 90.14 -18.97 90.01 -19.46C89.88 -19.95 89.78 -20.49 89.71 -21.07C89.71 -21.4 89.73 -21.67 89.76 -21.9C89.79 -22.13 89.81 -22.37 89.81 -22.63C89.81 -22.89 89.78 -23.12 89.71 -23.32C89.65 -23.51 89.62 -23.71 89.62 -23.9C89.55 -24.49 89.54 -25.09 89.57 -25.71C89.6 -26.32 89.62 -26.96 89.62 -27.61C89.55 -27.93 89.54 -28.24 89.57 -28.54C89.6 -28.83 89.55 -29.04 89.42 -29.17C89.29 -29.3 89.24 -29.49 89.27 -29.75C89.31 -30.02 89.32 -30.24 89.32 -30.44C89.84 -30.5 90.35 -30.5 90.84 -30.44C91.32 -30.37 91.79 -30.34 92.25 -30.34C92.77 -30.34 93.26 -30.37 93.71 -30.44C94.17 -30.5 94.66 -30.5 95.18 -30.44C95.76 -30.37 96.31 -30.31 96.84 -30.24L98.4 -30.05L100.35 -30.05C100.61 -30.05 100.87 -30.03 101.13 -30C101.39 -29.97 101.68 -29.95 102.01 -29.95C102.27 -29.95 102.51 -29.98 102.74 -30.05C102.96 -30.11 103.21 -30.15 103.47 -30.15C103.86 -30.21 104.28 -30.24 104.74 -30.24C105.19 -30.24 105.62 -30.28 106.01 -30.34C106.53 -30.34 107 -30.36 107.42 -30.39C107.84 -30.42 108.22 -30.44 108.54 -30.44C108.87 -30.44 109.16 -30.41 109.42 -30.34C109.68 -30.28 110.23 -30.28 111.08 -30.34C111.79 -30.34 112.48 -30.32 113.13 -30.29C113.78 -30.26 114.43 -30.31 115.08 -30.44C115.66 -30.5 116.23 -30.57 116.79 -30.63C117.34 -30.7 117.91 -30.7 118.49 -30.63C118.82 -30.63 119.14 -30.6 119.47 -30.54C119.79 -30.47 120.28 -30.47 120.93 -30.54L122.74 -30.54C123.35 -30.54 124.02 -30.47 124.74 -30.34C125.06 -30.28 125.37 -30.21 125.66 -30.15C125.96 -30.08 126.23 -29.95 126.49 -29.75C126.49 -29.3 126.48 -28.88 126.44 -28.49C126.41 -28.1 126.39 -27.67 126.39 -27.22L126.39 -23.51C126.39 -22.21 126.43 -20.94 126.49 -19.71C126.56 -19.19 126.61 -18.67 126.64 -18.15C126.67 -17.63 126.69 -17.11 126.69 -16.58C126.75 -16.06 126.79 -15.53 126.79 -14.98C126.79 -14.42 126.75 -13.98 126.69 -13.66C126.69 -13.4 126.7 -13.2 126.74 -13.07C126.77 -12.94 126.82 -12.68 126.88 -12.29C126.95 -11.58 127.03 -10.91 127.13 -10.29C127.22 -9.67 127.24 -9.07 127.18 -8.49L127.18 -7.85C127.18 -7.63 127.08 -7.12 126.88 -6.34C126.75 -5.89 126.67 -5.46 126.64 -5.07C126.61 -4.68 126.56 -4.29 126.49 -3.9C126.36 -3.38 126.28 -2.98 126.25 -2.68C126.22 -2.39 126.1 -2.08 125.91 -1.76C125.52 -1.24 124.8 -0.72 123.76 -0.2C123.44 0 123.11 0.16 122.79 0.29L121.81 0.68C121.68 0.75 121.6 0.81 121.57 0.88C121.53 0.94 121.29 1.07 120.83 1.27C120.77 1.33 120.72 1.4 120.69 1.46C120.66 1.53 120.38 1.69 119.86 1.95C119.73 2.08 119.57 2.18 119.37 2.24C119.18 2.31 119.05 2.44 118.98 2.63C118.33 2.76 117.97 2.99 117.91 3.32C118.04 3.51 118.2 3.61 118.4 3.61C118.59 3.61 118.79 3.64 118.98 3.71C119.57 3.84 120.18 3.84 120.83 3.71C121.48 3.58 122.1 3.45 122.69 3.32C123.6 3.19 124.48 3.07 125.32 2.98C126.17 2.88 127.05 2.83 127.96 2.83C128.61 2.83 129.24 2.85 129.86 2.88C130.48 2.91 131.04 2.89 131.57 2.83C132.28 2.76 132.98 2.7 133.66 2.63C134.35 2.57 135.01 2.5 135.66 2.44C136.77 2.37 137.86 2.36 138.93 2.39C140 2.42 141 2.41 141.91 2.34C142.3 2.34 142.65 2.33 142.98 2.29C143.3 2.26 143.4 1.89 143.27 1.17C142.49 0.91 141.87 0.65 141.42 0.39C141.29 0.26 141.13 0.18 140.93 0.15C140.74 0.11 140.31 -0.16 139.66 -0.68C139.34 -0.94 138.85 -1.3 138.2 -1.76C137.87 -2.02 137.61 -2.24 137.42 -2.44C137.22 -2.63 137 -2.83 136.74 -3.02C136.74 -3.22 136.69 -3.3 136.59 -3.27C136.49 -3.24 136.31 -3.48 136.05 -4C135.92 -4.19 135.79 -4.34 135.66 -4.44C135.53 -4.54 135.44 -4.72 135.37 -4.98C135.24 -5.11 135.18 -5.38 135.18 -5.8C135.18 -6.23 135.11 -6.73 134.98 -7.32C134.91 -7.58 134.88 -7.85 134.88 -8.15C134.88 -8.44 134.75 -8.91 134.49 -9.56C134.49 -9.69 134.48 -9.85 134.44 -10.05C134.41 -10.24 134.39 -10.47 134.39 -10.73C134.33 -11.12 134.31 -11.46 134.35 -11.76C134.38 -12.05 134.39 -12.36 134.39 -12.68C134.39 -13.27 134.31 -13.79 134.15 -14.24C133.99 -14.7 133.84 -15.09 133.71 -15.41C133.39 -16.26 133.26 -17.11 133.32 -17.95C133.39 -18.21 133.5 -18.45 133.66 -18.68C133.83 -18.91 133.94 -19.41 134 -20.19C134.07 -20.45 134.17 -20.71 134.3 -20.97C134.43 -21.23 134.49 -21.53 134.49 -21.85C134.56 -22.18 134.54 -22.54 134.44 -22.93C134.35 -23.32 134.33 -23.84 134.39 -24.49C134.39 -24.81 134.36 -25.22 134.3 -25.71C134.23 -26.19 134.2 -26.73 134.2 -27.32C134.13 -27.58 134.1 -27.8 134.1 -28C134.1 -28.19 134.07 -28.42 134 -28.68C134 -29.07 133.94 -29.48 133.81 -29.9C133.68 -30.32 133.65 -30.86 133.71 -31.51L133.71 -32.97C133.71 -33.36 133.68 -33.72 133.61 -34.05C133.55 -34.37 133.55 -34.7 133.61 -35.02C133.61 -35.41 133.66 -35.8 133.76 -36.19C133.86 -36.58 133.91 -36.94 133.91 -37.27C133.97 -37.66 134 -38.05 134 -38.44L134 -39.71C134 -40.62 133.94 -41.51 133.81 -42.39C133.68 -43.27 133.61 -44.16 133.61 -45.07C133.55 -45.72 133.55 -46.29 133.61 -46.78C133.68 -47.27 133.71 -47.74 133.71 -48.19C133.71 -48.39 133.68 -48.57 133.61 -48.73C133.55 -48.89 133.55 -49.07 133.61 -49.27C133.61 -49.53 133.68 -49.92 133.81 -50.44C134.07 -52.65 134.39 -54.83 134.78 -56.97C134.85 -57.36 134.93 -57.77 135.03 -58.19C135.13 -58.62 135.21 -59.02 135.27 -59.41C135.27 -59.74 135.26 -60.05 135.22 -60.34C135.19 -60.63 135.21 -60.91 135.27 -61.17C135.27 -61.49 135.32 -61.8 135.42 -62.1C135.52 -62.39 135.6 -62.7 135.66 -63.02C135.79 -63.35 135.87 -63.66 135.91 -63.95C135.94 -64.24 136.21 -64.75 136.74 -65.46C136.87 -65.46 136.93 -65.49 136.93 -65.56C136.93 -65.62 137.16 -65.85 137.61 -66.24C137.94 -66.5 138.23 -66.78 138.49 -67.07C138.75 -67.36 139.04 -67.61 139.37 -67.8C139.89 -68 140.39 -68.24 140.88 -68.53C141.37 -68.83 141.87 -69.1 142.39 -69.36C142.59 -69.49 142.82 -69.95 143.08 -70.73C142.56 -70.86 142.05 -70.92 141.57 -70.92C141.08 -70.92 140.57 -70.89 140.05 -70.83C139.92 -70.83 139.83 -70.81 139.76 -70.78C139.7 -70.75 139.4 -70.73 138.88 -70.73C138.62 -70.79 138.36 -70.79 138.1 -70.73C137.84 -70.66 137.55 -70.63 137.22 -70.63L134.98 -70.63C134.65 -70.63 134.35 -70.6 134.05 -70.53C133.76 -70.47 133.45 -70.44 133.13 -70.44C132.15 -70.31 131.31 -70.24 130.59 -70.24C129.87 -70.24 129.31 -70.27 128.88 -70.34C128.46 -70.4 127.89 -70.37 127.18 -70.24C126.72 -70.18 126.27 -70.16 125.81 -70.19C125.35 -70.22 124.83 -70.21 124.25 -70.14C123.4 -70.08 122.62 -70 121.91 -69.9C121.19 -69.8 120.48 -69.69 119.76 -69.56C119.44 -69.49 118.92 -69.46 118.2 -69.46C117.81 -69.66 117.45 -69.62 117.13 -69.36C117.19 -69.1 117.24 -68.86 117.27 -68.63C117.31 -68.4 117.39 -68.22 117.52 -68.09C117.71 -68.09 117.89 -68.01 118.05 -67.85L118.49 -67.41C118.75 -67.22 119.01 -66.89 119.27 -66.44C119.6 -65.98 119.84 -65.53 120 -65.07C120.17 -64.62 120.35 -64.06 120.54 -63.41C120.61 -63.28 120.69 -63.17 120.79 -63.07C120.88 -62.97 120.9 -62.73 120.83 -62.34C120.83 -62.27 120.87 -62.23 120.93 -62.19C121 -62.16 121.13 -61.82 121.32 -61.17C121.45 -60.84 121.53 -60.55 121.57 -60.29C121.6 -60.03 121.68 -59.74 121.81 -59.41C121.94 -59.02 122.05 -58.71 122.15 -58.49C122.25 -58.26 122.36 -58.01 122.49 -57.75C122.75 -57.17 122.98 -56.42 123.18 -55.51C123.3 -55.18 123.39 -54.84 123.42 -54.49C123.45 -54.13 123.57 -53.53 123.76 -52.68C123.83 -52.42 123.86 -52.14 123.86 -51.85C123.86 -51.56 123.92 -51.28 124.05 -51.02C124.05 -50.96 124.28 -50.4 124.74 -49.36C124.8 -49.04 124.83 -48.71 124.83 -48.39C124.83 -48.06 124.87 -47.71 124.93 -47.32C125 -46.92 125.09 -46.53 125.22 -46.14C125.35 -45.75 125.45 -45.33 125.52 -44.88C125.65 -44.36 125.74 -43.93 125.81 -43.61C125.81 -43.48 125.84 -43.3 125.91 -43.07C125.97 -42.84 125.97 -42.63 125.91 -42.44L126.1 -41.85C126.17 -41.66 126.23 -41.49 126.3 -41.36L126.3 -40.68C126.3 -40.42 126.33 -40.19 126.39 -40C126.46 -39.48 126.49 -38.96 126.49 -38.44L126.49 -36.88C126.17 -36.81 125.87 -36.8 125.61 -36.83C125.35 -36.86 124.83 -36.78 124.05 -36.58C123.73 -36.45 123.05 -36.29 122 -36.1C121.87 -36.03 121.39 -35.9 120.54 -35.71C120.28 -35.64 120.05 -35.54 119.86 -35.41C119.66 -35.28 119.44 -35.19 119.18 -35.12C118.98 -35.12 118.77 -35.14 118.54 -35.17C118.31 -35.2 118.1 -35.19 117.91 -35.12C117.71 -35.12 117.52 -35.09 117.32 -35.02C117.13 -34.96 116.96 -34.93 116.83 -34.93C116.31 -34.93 115.83 -34.96 115.37 -35.02C114.92 -35.09 114.43 -35.09 113.91 -35.02C113.52 -35.02 113.13 -34.99 112.74 -34.93C112.35 -34.86 111.96 -34.83 111.57 -34.83C111.05 -34.83 110.53 -34.88 110.01 -34.97C109.49 -35.07 108.97 -35.12 108.44 -35.12C108.18 -35.19 107.89 -35.19 107.57 -35.12C107.24 -35.06 106.95 -35.02 106.69 -35.02C106.36 -35.02 106.07 -35.06 105.81 -35.12C105.55 -35.19 104.93 -35.12 103.96 -34.93C103.83 -34.86 103.66 -34.84 103.47 -34.88C103.27 -34.91 103.08 -34.93 102.88 -34.93C102.56 -34.86 102.2 -34.8 101.81 -34.73C101.42 -34.67 101.06 -34.63 100.74 -34.63C100.48 -34.7 100.25 -34.78 100.05 -34.88C99.86 -34.97 99.6 -35.09 99.27 -35.22C98.75 -35.22 98.2 -35.19 97.62 -35.12C97.03 -35.06 96.44 -35.06 95.86 -35.12C95.53 -35.19 95.23 -35.27 94.93 -35.36C94.64 -35.46 94.36 -35.51 94.1 -35.51C93.58 -35.51 93.11 -35.46 92.69 -35.36C92.27 -35.27 91.86 -35.15 91.47 -35.02C91.21 -35.35 90.79 -35.43 90.2 -35.27C89.62 -35.1 89.23 -35.09 89.03 -35.22C88.97 -36.32 88.95 -37.41 88.98 -38.49C89.01 -39.56 88.97 -40.55 88.84 -41.46C88.77 -42.5 88.72 -43.51 88.69 -44.49C88.66 -45.46 88.61 -46.47 88.54 -47.51C88.48 -48.62 88.45 -49.66 88.45 -50.63L88.45 -53.46C88.38 -54.11 88.35 -54.7 88.35 -55.22C88.35 -55.74 88.48 -56.39 88.74 -57.17C88.87 -57.49 88.92 -57.72 88.88 -57.85C88.85 -57.98 89.03 -58.47 89.42 -59.31C89.49 -59.38 89.57 -59.44 89.66 -59.51C89.76 -59.57 89.91 -59.97 90.1 -60.68C90.3 -61.33 90.59 -61.87 90.98 -62.29C91.37 -62.71 91.66 -63.22 91.86 -63.8C92.05 -63.87 92.22 -64 92.35 -64.19L92.74 -64.78C92.87 -64.91 93.03 -65.05 93.23 -65.22C93.42 -65.38 93.58 -65.53 93.71 -65.66C94.04 -65.98 94.31 -66.35 94.54 -66.78C94.77 -67.2 95.14 -67.48 95.66 -67.61C95.79 -67.93 96.02 -68.21 96.35 -68.44C96.67 -68.66 97.16 -69.23 97.81 -70.14Z"></path></g><g id="SvgjsG13351" class="iqeE_PpX8" transform="translate(36.27705937776758, 160.37155924713798) scale(1.593274160627108)" light-content="false" non-strokable="false" fill="#2f2d69"><path d="M38.32 43.041h-1.039l3.014-8.518a1.139 1.139 0 0 0-1.077-1.521H13.274l-1.443-4.561a1.141 1.141 0 0 0-1.088-.797H3.141a1.141 1.141 0 0 0 0 2.283h6.765l4.621 14.599c.15.475.59.799 1.088.799h21.09l-.848 2.395H16.784a1.14 1.14 0 1 0 0 2.28h19.88c.482 0 .914-.303 1.074-.76l1.658-4.678c.123-.35.068-.736-.145-1.039s-.56-.482-.931-.482zm-21.869 0l-2.454-7.758h3.229l1.432 7.758h-2.207zm4.527 0l-1.432-7.758h3.115l.287 7.758h-1.97zm6.207 0h-1.953l-.286-7.758h3.092l-.853 7.758zm4.187 0h-1.891l.854-7.758h3.019l-1.982 7.758zm3.489 0h-1.135l1.982-7.758h1.896l-2.743 7.758zm-15.1 7.975a2.911 2.911 0 1 0-.001 5.823 2.911 2.911 0 0 0 .001-5.823zm0 3.677a.767.767 0 1 1 0-1.535.767.767 0 0 1 0 1.535zm13.421-3.677a2.91 2.91 0 1 0 0 5.82 2.91 2.91 0 0 0 0-5.82zm0 3.677a.766.766 0 1 1 .003-1.533.766.766 0 0 1-.003 1.533z"></path><path d="M42.857 7.163c-10.554 0-19.142 8.588-19.142 19.143 0 1.732.235 3.41.668 5.007h1.548a17.598 17.598 0 0 1-.711-4.264h4.03c.04 1.472.209 2.896.474 4.264h1.51a24.826 24.826 0 0 1-.497-4.264h5.947c.018 1.428.09 2.859.207 4.264h1.482a59.336 59.336 0 0 1-.203-4.264h9.375a56.23 56.23 0 0 1-.402 6.231H41.76c.217.416.318.91.221 1.486h4.953c-.92 5.834-2.691 9.195-4.076 9.195-.91 0-1.984-1.457-2.877-4.102l-.816 2.025.004.006c.037.012 2.549.848 1.836 3.467.609.059 1.229.09 1.854.09C53.412 45.447 62 36.861 62 26.305 62 15.75 53.412 7.163 42.857 7.163zm17.637 18.399h-4.029a25.788 25.788 0 0 0-.906-6.155h3.551a17.547 17.547 0 0 1 1.384 6.155zm-2.103-7.643H55.1c-1.078-3.094-2.732-5.72-4.766-7.604a17.772 17.772 0 0 1 8.057 7.604zm-9.36 7.643a58.45 58.45 0 0 0-.395-6.155h5.389c.559 1.904.891 3.979.953 6.155h-5.947zm5.948 1.486a24.409 24.409 0 0 1-.975 6.231h-5.377c.244-2.012.379-4.129.404-6.231h5.948zm-1.446-9.129h-5.096c-.547-3.649-1.463-6.832-2.721-8.77 3.374 1.191 6.202 4.434 7.817 8.77zM42.857 8.65c1.391 0 3.172 3.389 4.088 9.27H38.77c.916-5.881 2.695-9.27 4.087-9.27zM29.25 25.562h-4.03a17.548 17.548 0 0 1 1.385-6.155h3.55a25.839 25.839 0 0 0-.905 6.155zm1.366-7.643h-3.292a17.782 17.782 0 0 1 8.057-7.604c-2.033 1.885-3.687 4.511-4.765 7.604zm6.068 7.643h-5.947c.062-2.176.395-4.251.952-6.155h5.389a58.185 58.185 0 0 0-.394 6.155zm.595-7.643h-5.097c1.615-4.336 4.443-7.579 7.816-8.77-1.26 1.938-2.174 5.121-2.719 8.77zm.891 7.643c.025-2.247.168-4.306.393-6.155h8.59c.225 1.85.367 3.908.393 6.155H38.17zm7.547 17.899c1.25-1.924 2.162-5.076 2.709-8.695h5.078c-1.619 4.298-4.434 7.511-7.787 8.695zm4.617-1.166c2.016-1.869 3.66-4.467 4.736-7.529h3.279a17.763 17.763 0 0 1-8.015 7.529zm8.74-9.016h-3.535c.543-1.944.865-4.04.926-6.231h4.029a17.515 17.515 0 0 1-1.42 6.231z"></path></g></g></svg>