<svg xmlns="http://www.w3.org/2000/svg" version="1.1" xlink="http://www.w3.org/1999/xlink" xmlns:svgjs="http://svgjs.com/svgjs" width="100%" height="100%" preserveAspectRatio="xMidYMid meet" viewBox="0.00007923484372440726 0.000023661687009735033 280.7146301269531 146.99993896484375" overflow="visible"><defs id="SvgjsDefs128458"></defs><g id="SvgjsG128459" transform="scale(0.4721540219155778)" opacity="1"><g id="SvgjsG128460" class="ee1SSq9Dm" transform="translate(38.728123848374935, 40.06628078170064) scale(0.7662495819946228) rotate(26, 154.24829560947592, 150.86893775075276)" light-content="false" non-strokable="false" fill="#ffffff"><path d="M216.6 20.3c1.3.8 3.2 1.6 5.3 2.4-.2-.9-.9-1.7-2.1-2.5-1.3-.7-3.1-1.4-5.6-2.1.2.7 1.1 1.4 2.4 2.2zM68.5 266c-3.6-2.6-7-5.4-10.3-8.3-1.4-1.2-2.7-2.3-4.1-3.5-.3-.4-.6-.9-.8-1.3.3-.8-.4-1.7-1.5-2.7-1.1-1-2.7-2-4.3-3-2.7-2.8-3.7-3.3-5.1-2.5 1.2 1.4 2.4 2.8 3.5 4 1 1.5 1.9 2.8 3 4.2-2.3-2.6-4.3-5.4-6.5-8.2-1.5-1.7-2.9-2-3.5-1.4l2.1 3.3c.8 1.1 1.6 2.1 2.3 3.2.2 1.6-1 1.2-1.3 1.4.6.7 1.1 1.3 1.7 2 .6.7 1.2 1.3 1.9 2 1.3 1.3 2.6 2.7 4 4 1.4 1.3 2.8 2.6 4.3 4 1.5 1.3 3 2.6 4.6 3.9.6.5 1.2 1 1.9 1.4.7.4 1.3.9 2 1.3 1.3-.4 2.6-.9 3.9-1.4-.3-.2-.4-.3-.7-.6 1.2-.7 2-1.2 2.9-1.8zm-17.4-9.4c-.9-1.1-1.8-2.3-2.7-3.4 1.2 1.3 2.3 2.9 3.7 4.2.4.4.8.8 1.2 1.1-.8-.4-1.6-1-2.2-1.9zM68.4 270c.3.9 1.2 1.8 2.6 2.9.7.5 1.6 1 2.6 1.6 1 .6 2.3 1.1 3.7 1.7.5-.3-.9-1.5-1.3-2.3-1.8-1.2-3.7-2.7-7.6-3.9zm-11.8-54.2c.6 1.3 1.3 2.6 1.8 3.8.3.5.6.9.8 1.2.8 1.1 1.7 2.3 2.6 3.5 6 2.9-2.6-5.1-2.9-7.8-.5.4-1.9-1.6-2.3-.7zM206.9 14c-2-1.5-3.9-2.8-5.7-3.5-1.8-.7-3.4-1-4.5-.6.5 1.6 4.3 2.7 10.2 4.1z"></path><path d="M308.3 158.7c-.1-.9-.3-1.9-.4-3.2-.1-1.3-.1-2.8-.1-4.7-.1-.1-.2-.1-.3-.2-.5-.2-1-.5-1.5-.7-.2-1.8-.4-3.3-.6-4.9-1.1.3-2.2.8-3.3 1.2-.7-.1-1.5-.1-2.3 0-.6-.3-.9-.4-1.5 2.9-.6.8-1.2 1.8-1.8 2.7-.7 0-1.5-.1-2.3-.1-1.2-1.1-2.6-2.2-3.9-3.4-.4-1.4-.8-1.7-1-2.8-.7-.3-1.5-.6-2.2-.8-.9-.2-1.9-.2-2.9-.2-.5 0-1.5-1.2-1.6.2-.8.7-1.7 1.3-2.5 2.2-.2-.5-.5-.8-.7-1 .1 12.2-1.5 24.5-5.1 36.2.2 1.3-2.1 4.1-.6 4-1 6.6-3.7 12.2-6.3 18.1 1.7.7.9 2.4-.5 4.2-1.3 1.8-3 3.8-2.8 5.5-1.6.5-2.4 2.2-3.4 4-1 1.8-2 3.9-3.9 4.8-4.2 6.7-10.4 13.5-16.2 18.3-1.6 1.7-3.2 3.3-5 4.7-.9.7-1.8 1.4-2.8 2.1-.9.7-1.9 1.4-2.9 2-2 1.3-4 2.6-6.2 3.7l-3.3 1.8c-1.1.6-2.3 1.2-3.5 1.8.1.8-1.6 1.3-1.8 2.3-1.8.9-3.7 1.7-5.6 2.6-1.9.8-3.9 1.6-5.8 2.4-1.6.6-3.3 1.2-5.1 1.9-1.8.6-3.8 1.1-5.7 1.7-3.9 1-7.9 1.9-11.4 2.4-.6.8-3.3.3-3.2 2.1-1-.3-2.1-.5-3.4-.4-.6 0-1.3.2-2 .4s-1.4.4-2.2.8c-1.6-.5-5.3.6-5.2-.7-1 .1-3.1-.2-3.1.4-.6.3-1.3.4-2.2.4-.8 0-1.7-.1-2.5-.1-1.4.3-2.6.5-4.1.8 1-1.3-3.3-1.3-3.6-.9-.6.3-1.6.2-2.7.2s-2.2 0-3.1.7c-.3 0-.5-.1-.8-.1-1-.7-2-1.2-2.9-1.4-.9-.2-1.7-.2-2.3.4-.8-.2-1.4-.6-2.3-.8-.9-.2-2.1-.1-4.1.5-.8-.1-1.7-.2-2.4-.2 1.3-.8-1.2-1-.7-1.8-1.3.1-2.9-.2-4.5-.6-1.6-.4-3.3-.9-5-1.5-1.7-.6-3.3-1.2-4.9-1.7-1.6-.6-3-1-4.4-1.1-1.9-.8-3.6-1.6-5.5-2.5-1.3-.5-2.8-1.4-4.3-2.1-1.5-.7-3-1.3-4.5-1.5-.4-.2-.8-.5-1.4-.8-3.8-2.3-8.2-6.2-14.2-8.9-1.8-1.5-3.5-3.1-5.1-4.7-.8-.8-1.6-1.6-2.4-2.3-.8-.7-1.6-1.5-2.4-2.2-1.1-1.2-1.5-2.1-1.7-3 0-.1 0-.2-.1-.3-8.4-6.5-15-14.4-20.8-23.2-.9-.4-1.8-.6-2.6-.9-.9-.7-1.9-1.6-2.7-2.4-.2-.4-.4-.9-.7-1.4-3.7-7.7-7.2-17.2-9.6-25.4-.2-.1-.5-.4-.8-.6-.3-.8-.5-1.7-.7-2.8-.2-1.1-.5-2.6-.7-4.6.3-.1.6-.1 1-.2-3.9-15.5-5-31-2.9-46.9l.5.5c.4-4.2 1.1-8.3 1.9-12.3v-.1c.1-.2.1-.5.2-.7 5.5-25 19.1-47.9 37.9-65.4-1 1-1.5 2-2.5 3 16.5-17 37-28 60.5-33.5 6-1 12-2.5 18-2 8.5 0 17.5 0 26 .5l-.5.5c11.5 1 22.5 5 33.5 9-1.5-.5-3.5-1-5-1.5 15.5 6 30 14 42 26 2.7 3.1 5.4 5.9 8.1 8.8h.4c1.4-.5 1.6-2.2 1.8-3.3-1-1.5-2.2-2.8-3.4-4.3-.7-1.1-1.3-2.1-2.2-3.2-2-1.9-4.2-3.9-6.3-5.6-.7-.9-1.5-1.7-2.3-2.6-.8-.8-1.7-1.6-2.5-2.4-1.7-1.7-3.6-3.1-5.5-4.6l-1.4-1.1-1.5-1c-1-.7-1.9-1.4-2.9-2.1-1.9-1.4-3.9-2.6-5.6-4-.8-.9-2.7-1.8-4.5-2.8-.5-.2-.9-.5-1.4-.7-.4-.2-.9-.4-1.3-.6-.8-.4-1.4-.8-1.8-1.2-.8-.4-1.7-.8-2.5-1.2-.8-.4-1.7-.7-2.5-1-.9-.4-2-.8-2.9-1.2.6-1.7-3.6-2.7-5.1-2.5l-1.9-.7-1.9-.6-3.8-1.1c-1.3-.4-2.6-.6-3.9-1-1.3-.3-2.6-.7-3.9-.9-1.3-.3-2.6-.7-3.9-1-.2-.7-1.4-1.3-2.9-1.5-1.5-.2-3.2-.2-4.2.1-.8-.1-1.7-.2-2.5-.3-1.9-.6-4.1-1.2-6.2-1.8 1.2-1-1.5-1.2-.6-1.9.8-.6 1.4-1.2 2-1.8 1.2-.1 2.5-.1 4.1-.2 1.6-.2 3.6-.3 6.2-.6l3 .6c1 .2 1.9.5 2.9.7 1 .2 1.9.5 2.9.7.5.1 1 .2 1.4.4.5.1 1 .3 1.4.4.1.7 1.2 1.4 2.9 1.8 1.7.4 4 .8 6.7.8-1.7-1-3.4-2-5.2-2.8.1-.4.3-.8.4-1.3 0-.1.1-.2.1-.3-.8-.3-1.7-.7-2.5-1-1.4-.3-2.8-.7-4.2-1-2-.2-1.4 1.1-3 1.4-.9-.4-1.4-1.1-2.1-1.7-.7-.6-1.7-1.2-3.4-1.2-1.6-.2-3.4-.3-5.2-.4-1.6-.1-3.4-.1-5.1-.2 0 .1 0 .3-.1.3-1.3.3-2.4.6-3.7 1-1.2-.1-2.4-.1-3.7-.1-1.2 0-2.5-.1-3.7 0-2.5.1-4.9 0-7-.2-8.2.2-16.4 1.2-24.4 2.9-.9-.5-2.3-.5-3.8-.1s-2.9 1.1-3.9 1.7c-10.2 2.7-20.2 6.6-29.6 11.6-1.5.2-2.6-.4-4.3 1-.9 1.1-2.9 2-3.2 3.4-1.2.6-2.4 1.1-3.6 1.7-1.1.6-2.3 1.2-3.4 1.8-1.6 1-3.3 2-4.8 3.1-1.6 1.1-3.2 2.1-4.7 3.3-1.4.9-2.9 1.9-4.4 2.9-1 1.1-1.8 2.2-2.9 3.4-.9.9-1.9 1.7-2.8 2.6-.9.9-1.8 1.9-2.8 2.9-.8.6-1.7 1.3-2.4 2.1-.8.8-1.4 1.6-1.7 2.3-1.3 1.2-2.7 2.4-3.9 3.6.7-1.8-1.4-1.1-.8-3.1-1.2.4-2.4 2.6-3.5 3.8-.5 1.3-.9 2.5-1.3 3.8-.1.1-.3.4-.4.6-.4-1.1-1.5-.1-2.3.5-.6.8-1.1 1.5-1.6 2.4-.5 1-1.1 2.2-1.7 4-1.3 1.4-2.1 1.9-2.8 2.6-1 2.1-3.5 4.7-3.1 6.5-.8 1.7-1.5 3.2-2.3 5-1.1 1.7-2 3.6-3 5.4-.6.5-1.1 1.5-1.6 2.5-.4 1.1-.8 2.2-1.3 3.2-.1 1.6-.2 3.2-.2 4.9-.6 1.9-1.2 3.7-1.8 5.6-.6 1.9-1 3.7-1.5 5.5-.4 1.3-.7 2.3-1 3.6-1 .4-2.2 3-3.3 4.4-.5 1.8-.7 3.7-.7 6.5-.1.6-.2 1.1-.3 1.8-2 1.6-1.2 6.1-1.5 8 .4 1 .9 1.9 1.3 2.9-1 1.2-.8 3.5-1 5.3-2.8 4.3-2.3 13-1.7 20.6.6 1.3 1.2 2.5 1.9 3.8.2 1.8.3 3.6.5 5.3.2 1.8.5 3.5.7 5.3-.9.4-1.1 2.6-.4 4.6.9.8 1.3 3 1.9 5.3.7 2.3 1.6 4.8 3.4 5.8.2.7.4 1.6.7 2.5.4 1.1.8 2.3 1.1 3.4.7 1.4-.1-2.7.6-1.3.7 1 1.3 2.5 2.1 3.8.8 1.3 1.5 2.3 2.2 2.3.2-1.3 0-2-.6-3.1-.5-1.1-1.4-2.7-2.8-5.7 1.1-2.5-2.4-9.6-2.2-13.9-.8-1.6-1.5-3.3-2.2-5.1-.4-2.4-.6-3.6-.8-5.1-.7-2.2-1.4-4.2-2-6.2 1 .7 1.1-3.3 2-3.5-.1-1.2-.1-2.4-.2-3.6-.1-1.2 0-2.4-.1-3.5 0-2.3-.1-4.7 0-7 .2-1.1.3-2.3.5-3.4.1-1.5.3-2.9.4-4.3.2-1.4.4-2.9.6-4.3.2-.3.5-.6.7-.8.2.6.5 1.2.8 2 1.6-4.4 1.8 1.4 2.7 2.1.5.4 1 .7 1.5 1.1-.2 2.4-.6 5.5.2 7.5-.2.5-.3 1-.4 1.7-.7.5-1 2.5-.9 4.7 0 1.1.1 2.3.3 3.4.2 1.1.5 2 .9 2.7h.9c1.1.5 2.2 1.1 3.3 1.7.3.8.6 1.6 1 2.4.4.8.7 1.6 1.1 2.4.2 1.8.3 2.8.5 4 .3 0 .7 0 1.6-.1.3 1.5.5 3 .7 4.3.2 1.3.6 2.5 1.3 3.4.4 1.8.8 3.5 1.2 5.3l1.5 5.4c.5 2.1 1.3 4.3 1.9 6.4.7 2.1 1.5 4.2 2.1 6.3.6 1.9 1.3 3.7 1.9 5.5.6 1.9 1.5 3.6 2.2 5.5.6 1.6 1.4 3.2 2.1 4.7.7 1.6 1.4 3.1 2.2 4.7.2 1.3.6 2.9 1.3 4.5.8 1.6 1.8 3.2 3.1 4.6.8.3 1.6.5 2.5.9.4.5.9 1.2 1.3 1.9-1.8-.4-.3 1.6-.3 2.4 1.1 1.3 2.4 2.5 3.6 3.7.1 1.2 0 2.2.1 3.3 1.7 2 3.2 3.8 4.9 5.7 1 1.7 3 2 3.7 2.6.9.8 1.8 1.6 2.8 2.4l3 2.4c3.1 2.7 3.1 4 4.7 6.3-1 0-1.9 0-3-.1-.3.2-.6.4-.8.5.9.8 1.7 1.5 2.5 2.2 4.2 3 3.9.1 7.5 1.8 1.5.9 2.8 1.8 4.3 2.8 1.1.8 2.2.5 5 2.9 1.8-.3 2.7.4 3.7 1.4 1 1 2.1 2.4 4.2 3.2-.5.4-1 .9-1.5 1.4-1.2-.7-2.5-1.4-3.7-2-1.3-.7-2.5-1.3-3.7-2.1-.1.1-.2.2-.3.2.2.9.5 1.8.7 2.7 2.1 1.1 4 2.1 6.1 3.2 2.2 1.1 4.6 2.4 6.8 3.5 1.8.8 3.9 1.6 5.8 2.3 2.3.9 4 1.6 5.5 2.2 1.4 1 2.9 1.8 4.2 2.6 1.2 0 2.5.2 3.8.4 1.3.2 2.7.4 4.2.8 3 .7 6.5 1.3 10.7 2 1.9.5 4 1 5.8 1.4l-1.8 3.3c-1.8-.3-3.6-.6-5.3-1-1.6-.4-3.1-.9-4.6-1.3-.8-.2-1.5-.4-2.3-.6-.8-.2-1.5-.5-2.3-.7-.2.3-.5.7-.8 1.1-1-.1-1.9-.3-2.7-.4-1.9-1.2-3.8-2.5-5.6-3.8-.7.1-1.5.2-2.2.2-4.7-1.2-6.3-1.4-6.8.1-1.5-.4-3-.8-4.5-1.3-3.1-1.6-6.7-3.7-12.8-5.3.3.6.9 1.2 1.6 1.7.8.5 1.7 1 2.8 1.5s2.3 1 3.6 1.5c1.3.5 2.7.9 4.1 1.3 1 .5 2 1 3 1.4l3.1 1.3c2.1.9 4.1 1.8 6.2 2.5.6.1 1.3.1 1.8.3.3-.3.6-.7.8-1.1 1.2.4 2.3.8 3.6 1.2 1.3 1.2 3.3 1.9 5.6 2.4 2.3.4 5 .6 7.5 1l4.8.9c1.6.3 3.2.6 4.8.8 1.9.1 3.9.2 5.6.4l7.5.3c1.1.2 2.4.3 3.5.5.9 0 1.7 0 2.6.1.9.2 1.7.4 2.6.7-.2.5-.3.9-.5 1.3 0 .1-.1.2-.1.3 2.6 1.4 3.8 1.3 6.2.2 1 0 1.9-.1 2.8-.1.9-.1 1.8-.1 2.8-.2 1.1-.5 2.2-1 3.1-1.5.7.1 1.3.1 1.8.2 1.4.5 1.2 1.1 2.3 1.3 3.1-.5 6.4-1 9.3-1.7 2.5-.5 5.4-1 5.4-.1 1.2-.3 2.5-.5 4.1-.9.8-.2 1.7-.4 2.8-.8 1-.4 2.1-.8 3.3-1.4 1.5-.9 3.1-1.8 4.6-2.7.7-.2 3.7 0 5.4-2.5-.5-.4-1.1-.8-1.8-1.1.9-.7 1.8-1.5 2.7-2.3 2.9-1.1 5.7-2.2 8.5-3.5.7.3 1.6.3 2.6.2.8-.4 1.7-.8 2.6-1.2.9-.4 1.8-.8 2.6-1.3 1.7-.9 3.2-1.9 3.8-3.4 1.1-.5 2-1.1 3.1-2 1.1-.9 2.5-2.1 4.6-4 .8-.5 1.5-.9 2.3-1.4 1.6-.9 3.2.2 5.7-2.4 1.6-1.1 2.9-2.1 3.4-4 .6-1.1 1.1-1.9 1.7-3 1.9-1.6 3.7-3.4 5.5-5.2 1.8-1.7 3.5-3.6 5.2-5.4.5-.3.9-.6 1.5-1 1.7-.7 3-1.5 4.8-3.6.7-1.8 4.4-4.4 4-7.4 1-1.2 1.8-2.5 2.7-3.8.9-1 1.7-2 2.6-3.1.8-1 1.7-2.1 2.5-3.3.9-.4 1.8-1.4 2.7-2.8.8-1.4 1.7-3.1 2.5-4.9 1.2-1.7 2-3.2 2.6-4.7.6-1.5.9-2.9 1-4.5.5-1.1 1.6-2.5 1-4 1.2-2.4 2.9-5.3 3.1-10.3.6-1.6 1.3-3.3 2-5.1 2.2-1.7 2.4.4 4.4-.7.4-2.2.8-4.5 1.2-6.7.7-3.2.7-5.2 1.6-7.6.1-1.3 0-2.9 0-4.2.4-1.7.8-3.5 1.2-4.9.3-1.5.4-2.7.2-3.3.4-2.4.3-4 0-5.8zM191 17.8c.5.2 1 .3 1.5.4.5.1 1 .3 1.6.4-1.6-.5-3.4.1-4.7-1.1 0-.1-.2-.2-.3-.4.6.3 1.2.5 1.9.7zM18.2 135.2c.1-.9.2-1.7.2-2.6 0 .8-.1 1.7-.2 2.6zM24.4 71c.5-.9 1.1-1.7 1.7-2.4-.3.8-.7 1.6-1.7 2.4zm165.4 215.5c-.1 0-.2 0-.4.1l.9-.3c-.2 0-.3.1-.5.2zm85.4-55.6c.5-.9 1-1.8 1.5-2.9.3-.7.7-1.4 1.1-2.2-.5 1.3-1.1 3-2.6 5.1zm9.1-14.5c-.6 1-1.2 2.2-1.7 3.2.6-1.5 1.3-2.9 2-4.3 0 .4-.2.7-.3 1.1zm2.9-4.3l-.2.2c.1-.1.2-.1.2-.2.1-.2.2-.4.4-.6-.1.2-.2.4-.4.6z"></path></g><g id="SvgjsG128461" class="text" transform="translate(441.4697587694395, 210.90890959513058) scale(1 1)" light-content="false" fill="#ffffff"><path d="M-128.02 -54.11C-125.04 -70 -122.81 -77.81 -121.32 -77.53C-120.63 -77.4 -120.19 -76.59 -120.01 -75.11L-119.75 -66.39C-119.21 -48.57 -118.53 -37.51 -117.71 -33.2C-117.73 -32.12 -117.49 -31.26 -116.97 -30.62C-116.46 -29.98 -115.72 -29.58 -114.76 -29.4C-111.71 -28.82 -109.27 -29.99 -107.46 -32.91L-106.33 -34.59C-104.47 -37.31 -101.95 -41.81 -98.79 -48.09C-91.1 -63.54 -86.38 -71.11 -84.63 -70.78C-83.94 -70.65 -83.96 -68.6 -84.7 -64.63C-85.45 -60.65 -86.87 -55.25 -88.97 -48.41L-90.24 -43.77C-93.08 -33.46 -95.1 -25.08 -96.32 -18.62C-97.07 -14.6 -97.37 -11.81 -97.21 -10.24L-97.19 -8.88C-97.18 -7.98 -96.69 -6.98 -95.72 -5.9C-94.75 -4.81 -93.24 -4.08 -91.19 -3.69C-89.13 -3.31 -86.59 -3.28 -83.54 -3.61C-80.5 -3.95 -77.59 -4.76 -74.82 -6.04C-72.05 -7.33 -70.49 -8.87 -70.16 -10.66C-69.82 -12.45 -70.36 -14.15 -71.77 -15.77C-73.98 -18 -73.37 -28.23 -69.95 -46.47C-68.24 -55.55 -66.08 -64.68 -63.45 -73.86C-60.83 -83.03 -58.12 -89.03 -55.33 -91.85C-54.25 -93.28 -53.62 -94.47 -53.44 -95.43C-52.87 -98.49 -56.12 -100.68 -63.19 -102C-67.47 -102.81 -71.43 -102.87 -75.08 -102.2C-77.48 -101.93 -79.56 -101.19 -81.33 -99.98C-83.09 -98.78 -84.17 -97.85 -84.56 -97.2C-84.95 -96.55 -85.87 -94.92 -87.31 -92.29C-88.75 -89.67 -91.73 -84.76 -96.24 -77.57C-96.96 -76.62 -97.76 -76.22 -98.63 -76.39C-99.85 -76.62 -100.34 -81.45 -100.11 -90.9C-99.99 -95.39 -100.13 -99.71 -100.53 -103.85C-100.8 -107.7 -103.14 -110.04 -107.55 -110.86C-111.96 -111.69 -117.58 -111.59 -124.41 -110.57C-131.25 -109.55 -135.02 -107.12 -135.74 -103.28C-136 -101.88 -135.72 -100.52 -134.88 -99.18C-133.9 -95.75 -134.08 -90.45 -135.43 -83.29C-138.96 -64.43 -143.25 -48.34 -148.28 -35L-149.55 -31.85C-152.26 -25.58 -154.42 -21.06 -156.02 -18.29L-156.58 -16.77C-156.94 -14.85 -156.05 -13.69 -153.91 -13.29C-151.77 -12.89 -148.67 -12.94 -144.6 -13.44C-142.19 -13.71 -140.02 -14.57 -138.08 -16.01C-136.14 -17.45 -134.84 -19.43 -134.19 -21.92L-131.66 -33.24Z M-22.12 -98.01C-27.8 -98.23 -31.81 -97.49 -34.14 -95.8C-36.47 -94.11 -38.34 -91.52 -39.77 -88.02C-41.19 -84.52 -41.95 -81.46 -42.05 -78.84C-42.15 -76.22 -41.27 -74.87 -39.4 -74.8C-38.52 -74.77 -37.23 -75.21 -35.55 -76.12C-33.88 -77.04 -32.28 -77.46 -30.77 -77.41C-29.26 -77.35 -28.38 -77.18 -28.12 -76.91C-27.87 -76.63 -27.75 -76.18 -27.78 -75.56C-28.73 -50.53 -31.11 -26.76 -34.9 -4.24L-35.39 -1.72C-35.51 1.21 -34.01 2.73 -30.9 2.85C-24.42 3.1 -18.8 1.45 -14.05 -2.11C-11.94 -3.63 -10.85 -5.45 -10.77 -7.58C-10.74 -8.29 -10.81 -8.92 -10.97 -9.46C-11.81 -17.75 -11.96 -28.8 -11.43 -42.6C-10.91 -56.41 -10.36 -67.25 -9.79 -75.14C-9.74 -76.56 -9.09 -77.25 -7.85 -77.2C-1.99 -76.98 1.88 -79.45 3.77 -84.62L4.22 -86.07C5.4 -89.05 6.04 -91.69 6.13 -94C6.24 -96.93 5.27 -98.43 3.23 -98.51C2.17 -98.55 1.05 -98.37 -0.12 -97.97C-2.11 -97.07 -5.24 -96.7 -9.5 -96.86Z M56.98 -90.77C52.91 -96.53 46.53 -99.08 37.85 -98.44C30.94 -97.93 25.44 -96.12 21.35 -93.02C17.26 -89.91 15.49 -84.59 16.05 -77.06C16.42 -72.01 17.89 -69.58 20.46 -69.77C22.59 -69.93 24.11 -71.02 25.03 -73.05L25.85 -74.58C26.3 -75.68 27.25 -76.78 28.68 -77.86C30.11 -78.95 31.76 -79.56 33.62 -79.69L35.23 -79.55C36.3 -79.54 37.41 -78.97 38.57 -77.86C39.72 -76.74 40.37 -75.07 40.54 -72.86C40.85 -68.61 39.2 -62.56 35.6 -54.73L24.47 -29.86C19.47 -19.25 17.18 -11.06 17.6 -5.3C17.9 -1.32 20.13 0.61 24.31 0.48L40.15 -0.29C52.73 -1.22 59.71 -2.62 61.08 -4.51C64.67 -7.8 65.99 -15.82 65.05 -28.58C64.77 -32.3 63.4 -34.07 60.92 -33.88C59.23 -33.76 57.5 -32.43 55.73 -29.89L54.89 -28.63C54.32 -27.88 53.14 -27.03 51.34 -26.1C49.54 -25.16 47.15 -24.59 44.18 -24.37C41.22 -24.15 39.66 -25.01 39.52 -26.96C39.43 -28.11 39.61 -29.33 40.05 -30.61L50.31 -52.74C50.7 -53.48 51.69 -55.36 53.3 -58.37C54.9 -61.38 55.93 -63.4 56.39 -64.41C56.85 -65.42 57.51 -67.07 58.36 -69.36C59.22 -71.65 59.73 -73.78 59.9 -75.76C60.06 -77.73 60.04 -80.15 59.83 -83.03C59.61 -85.91 58.67 -88.49 56.98 -90.77Z M126.53 -30.2C127.88 -23.86 129.24 -19.2 130.61 -16.22L131.15 -14.97C131.51 -14.14 132.37 -13.42 133.72 -12.8C135.08 -12.18 136.98 -12.13 139.41 -12.65C141.84 -13.17 144.85 -14.82 148.44 -17.58C152.02 -20.35 153.53 -23.08 152.95 -25.77C152.64 -27.25 151.61 -28.53 149.88 -29.61C148.15 -30.69 146.43 -33.66 144.71 -38.51C142.99 -43.37 140.84 -51.38 138.27 -62.55C134.78 -78.88 132.95 -93.79 132.79 -107.29C132.82 -108.84 132.68 -110.31 132.39 -111.7C132.09 -113.09 131.57 -113.93 130.82 -114.23C130.08 -114.52 128.97 -114.51 127.49 -114.19C123.93 -113.43 120.4 -111.47 116.9 -108.32C113.39 -105.16 111.99 -101.98 112.67 -98.76L115.91 -85.56L116.84 -80.58C117.36 -77.69 114.98 -75.68 109.68 -74.55C106.38 -73.84 104.24 -73.66 103.26 -73.99C102.28 -74.33 101.61 -75.32 101.26 -76.97L97.63 -98.4C97.22 -100.31 96.86 -101.78 96.55 -102.8C95.76 -105.63 94.07 -106.77 91.46 -106.21C88.07 -105.49 84.34 -103.28 80.27 -99.59C76.2 -95.91 74.49 -92.54 75.14 -89.5C75.44 -88.11 76.17 -87.04 77.33 -86.29C79.76 -84.27 81.4 -81.71 82.24 -78.62L87.21 -58.57C90.86 -41.55 93.27 -24.94 94.46 -8.76L94.63 -6.07C95.23 -3.29 97.15 -2.25 100.41 -2.94C103.67 -3.64 107.18 -5.48 110.94 -8.47C114.71 -11.45 116.26 -14.51 115.59 -17.64C115.44 -18.33 115.22 -18.92 114.94 -19.41C112.87 -24.41 109.81 -36.38 105.76 -55.32C105.03 -58.7 107.93 -61.1 114.44 -62.49C117.74 -63.2 119.76 -62.26 120.49 -59.7C121.07 -57.82 121.54 -56.06 121.89 -54.41Z"></path></g><g id="SvgjsG128462" class="WjNvp7w5Hq" transform="translate(86.82250319611954, 85.20987969276403) scale(2.2039371380433086)" stroke="#ffffff" stroke-width="1.3245065808544998px" light-content="false" non-strokable="false" fill="#ffffff"><path d="M38.32 43.041h-1.039l3.014-8.518a1.139 1.139 0 0 0-1.077-1.521H13.274l-1.443-4.561a1.141 1.141 0 0 0-1.088-.797H3.141a1.141 1.141 0 0 0 0 2.283h6.765l4.621 14.599c.15.475.59.799 1.088.799h21.09l-.848 2.395H16.784a1.14 1.14 0 1 0 0 2.28h19.88c.482 0 .914-.303 1.074-.76l1.658-4.678c.123-.35.068-.736-.145-1.039s-.56-.482-.931-.482zm-21.869 0l-2.454-7.758h3.229l1.432 7.758h-2.207zm4.527 0l-1.432-7.758h3.115l.287 7.758h-1.97zm6.207 0h-1.953l-.286-7.758h3.092l-.853 7.758zm4.187 0h-1.891l.854-7.758h3.019l-1.982 7.758zm3.489 0h-1.135l1.982-7.758h1.896l-2.743 7.758zm-15.1 7.975a2.911 2.911 0 1 0-.001 5.823 2.911 2.911 0 0 0 .001-5.823zm0 3.677a.767.767 0 1 1 0-1.535.767.767 0 0 1 0 1.535zm13.421-3.677a2.91 2.91 0 1 0 0 5.82 2.91 2.91 0 0 0 0-5.82zm0 3.677a.766.766 0 1 1 .003-1.533.766.766 0 0 1-.003 1.533z"></path><path d="M42.857 7.163c-10.554 0-19.142 8.588-19.142 19.143 0 1.732.235 3.41.668 5.007h1.548a17.598 17.598 0 0 1-.711-4.264h4.03c.04 1.472.209 2.896.474 4.264h1.51a24.826 24.826 0 0 1-.497-4.264h5.947c.018 1.428.09 2.859.207 4.264h1.482a59.336 59.336 0 0 1-.203-4.264h9.375a56.23 56.23 0 0 1-.402 6.231H41.76c.217.416.318.91.221 1.486h4.953c-.92 5.834-2.691 9.195-4.076 9.195-.91 0-1.984-1.457-2.877-4.102l-.816 2.025.004.006c.037.012 2.549.848 1.836 3.467.609.059 1.229.09 1.854.09C53.412 45.447 62 36.861 62 26.305 62 15.75 53.412 7.163 42.857 7.163zm17.637 18.399h-4.029a25.788 25.788 0 0 0-.906-6.155h3.551a17.547 17.547 0 0 1 1.384 6.155zm-2.103-7.643H55.1c-1.078-3.094-2.732-5.72-4.766-7.604a17.772 17.772 0 0 1 8.057 7.604zm-9.36 7.643a58.45 58.45 0 0 0-.395-6.155h5.389c.559 1.904.891 3.979.953 6.155h-5.947zm5.948 1.486a24.409 24.409 0 0 1-.975 6.231h-5.377c.244-2.012.379-4.129.404-6.231h5.948zm-1.446-9.129h-5.096c-.547-3.649-1.463-6.832-2.721-8.77 3.374 1.191 6.202 4.434 7.817 8.77zM42.857 8.65c1.391 0 3.172 3.389 4.088 9.27H38.77c.916-5.881 2.695-9.27 4.087-9.27zM29.25 25.562h-4.03a17.548 17.548 0 0 1 1.385-6.155h3.55a25.839 25.839 0 0 0-.905 6.155zm1.366-7.643h-3.292a17.782 17.782 0 0 1 8.057-7.604c-2.033 1.885-3.687 4.511-4.765 7.604zm6.068 7.643h-5.947c.062-2.176.395-4.251.952-6.155h5.389a58.185 58.185 0 0 0-.394 6.155zm.595-7.643h-5.097c1.615-4.336 4.443-7.579 7.816-8.77-1.26 1.938-2.174 5.121-2.719 8.77zm.891 7.643c.025-2.247.168-4.306.393-6.155h8.59c.225 1.85.367 3.908.393 6.155H38.17zm7.547 17.899c1.25-1.924 2.162-5.076 2.709-8.695h5.078c-1.619 4.298-4.434 7.511-7.787 8.695zm4.617-1.166c2.016-1.869 3.66-4.467 4.736-7.529h3.279a17.763 17.763 0 0 1-8.015 7.529zm8.74-9.016h-3.535c.543-1.944.865-4.04.926-6.231h4.029a17.515 17.515 0 0 1-1.42 6.231z"></path></g></g></svg>